<?xml version="1.0" encoding="utf-8"?>
<!-- Generator: Adobe Illustrator 15.0.0, SVG Export Plug-In . SVG Version: 6.00 Build 0)  -->
<!DOCTYPE svg PUBLIC "-//W3C//DTD SVG 1.1//EN" "http://www.w3.org/Graphics/SVG/1.1/DTD/svg11.dtd">
<svg version="1.1" id="Layer_1" xmlns="http://www.w3.org/2000/svg" xmlns:xlink="http://www.w3.org/1999/xlink" x="0px" y="0px"
	 width="400px" height="400px" viewBox="0 0 400 400" enable-background="new 0 0 400 400" xml:space="preserve">
<g opacity="0.1">
	<path fill-rule="evenodd" clip-rule="evenodd" fill="#C4C4C3" d="M184.606,350.418h29.321v2.664h-29.321V350.418L184.606,350.418z
		 M184.606,350.418"/>
	<path fill="#7B7B7B" d="M173.791,304.755l0.132-0.289c-0.224-0.158-0.447-0.314-0.666-0.468l-0.132,0.29
		c-2.426-1.731-4.684-3.695-6.735-5.856l-0.173-0.184l0.239-0.294c-0.188-0.198-0.372-0.396-0.554-0.599l-0.233,0.294
		c-1.35-1.492-2.598-3.086-3.745-4.74c-5.634,0.685-9.619,1.837-13.273,2.908c-5.364,1.563-9.998,2.918-19.961,2.918
		c-9.074,0-14.719-1.324-19.535-2.71c0.762,1.411,1.548,2.807,2.371,4.177c2.628,4.391,5.583,8.598,8.8,12.628
		c2.213,0.162,5.628,0.466,8.364,0.466c12.039,0,18.419-1.861,24.042-3.507c5.365-1.567,10.004-2.917,19.962-2.917
		c1.721,0,3.273,0.045,4.705,0.116c-1.163-0.65-2.299-1.34-3.401-2.091L173.791,304.755z"/>
	<path fill="#7B7B7B" d="M240.74,309.789c5.369-1.567,10.003-2.917,19.96-2.917c9.964,0,14.599,1.35,19.967,2.917
		c0.144,0.041,0.89,0.239,1.03,0.285c2.294-3.071,4.431-6.248,6.39-9.517c0.655-1.091,1.28-2.197,1.894-3.304
		c-1.578-0.391-3.68-0.985-5.232-1.437c-5.624-1.645-12.004-3.508-24.048-3.508c-12.037,0-18.418,1.863-24.04,3.508
		c-0.413,0.122-0.823,0.238-1.229,0.355c-1.706,2.056-3.583,3.969-5.619,5.694l-0.187,0.162l-0.005,0.035
		c-0.209,0.173-0.416,0.346-0.63,0.518l0.005-0.035c-2.313,1.878-4.807,3.532-7.446,4.929l-0.217,0.122l0,0
		c-0.239,0.126-0.482,0.248-0.726,0.37h0.005c-2.664,1.334-5.461,2.416-8.339,3.213l-0.238,0.061l0,0
		c-0.26,0.071-0.522,0.143-0.787,0.208l0,0c-2.07,0.522-4.178,0.894-6.294,1.121c3.254,0.442,7.064,0.726,11.745,0.726
		C228.742,313.296,235.117,311.435,240.74,309.789z"/>
	<path fill="#7B7B7B" d="M230.006,231.64l-0.163,0.132c0.207,0.172,0.416,0.35,0.613,0.533l0.158-0.133
		c2.229,1.985,4.263,4.178,6.07,6.548l0.147,0.197l-0.026-0.02c0.163,0.218,0.326,0.437,0.483,0.654l0.024,0.025
		c0.336,0.447,0.645,0.914,0.96,1.381c0.847-0.238,1.665-0.477,2.467-0.71c5.369-1.564,10.003-2.924,19.96-2.924
		c9.964,0,14.599,1.359,19.967,2.924c5.203,1.522,11.064,3.223,21.449,3.471c-0.214-3.015-0.609-6.024-1.203-9.004
		c-0.381-1.902-0.843-3.791-1.37-5.663c-6.589-0.387-10.455-1.513-14.795-2.781c-5.624-1.64-12.004-3.502-24.048-3.502
		c-12.037,0-18.418,1.862-24.04,3.502c-3.31,0.969-6.346,1.852-10.522,2.385c1.275,0.878,2.503,1.822,3.674,2.822L230.006,231.64z"
		/>
	<path fill="#7B7B7B" d="M108.73,226.271c-2.081-0.609-4.273-1.244-6.811-1.808c-1.188,3.355-2.136,6.786-2.833,10.252
		c-0.258,1.29-0.466,2.584-0.649,3.883c2.188,0.478,4.146,1.046,6.212,1.65c5.628,1.644,12.003,3.502,24.042,3.502
		c12.039,0,18.419-1.858,24.042-3.502c3.477-1.016,6.659-1.939,11.171-2.467c0.792-0.99,1.615-1.949,2.487-2.868l0.172-0.177
		l0.335,0.314c0.187-0.193,0.375-0.387,0.568-0.584l-0.34-0.315c2.101-2.115,4.405-4.029,6.872-5.71l0.208-0.136l0.141,0.273
		c0.229-0.152,0.452-0.299,0.681-0.446l-0.142-0.274c2.502-1.619,5.162-2.994,7.933-4.096l0.233-0.092l-0.061-0.162
		c0.132-0.051,0.269-0.102,0.406-0.147c-3.025-0.365-6.517-0.593-10.704-0.593c-12.044,0-18.418,1.862-24.042,3.502
		c-5.364,1.567-9.998,2.922-19.961,2.922C118.729,229.192,114.1,227.838,108.73,226.271z"/>
	<path fill-rule="evenodd" clip-rule="evenodd" fill="#C4C4C3" d="M199.264,201.381c1.771,0,3.208,1.437,3.208,3.207
		c0,1.767-1.432,3.208-3.208,3.208c-1.766,0-3.202-1.441-3.202-3.208C196.062,202.822,197.498,201.381,199.264,201.381"/>
	<g>
		<path fill="#C4C4C3" d="M121.271,268.334c0.153,0,0.229,0.071,0.229,0.294c0.071,1.198,0.371,2.62,1.421,4.269
			c1.122,1.798,3.066,2.69,4.938,2.69c2.02,0,4.862-1.27,4.862-4.375c0-3.441-1.574-4.562-5.538-6.06
			c-1.197-0.451-3.664-1.498-5.46-3.142c-1.274-1.203-1.873-3.07-1.873-5.35c0-2.097,0.821-3.822,2.619-5.243
			c1.497-1.274,3.141-1.797,5.313-1.797c2.467,0,3.964,0.6,4.715,0.899c0.376,0.151,0.599,0.075,0.787-0.112l0.487-0.482
			c0.147-0.151,0.299-0.233,0.522-0.233c0.224,0,0.3,0.233,0.3,0.604c0,0.599,0.598,5.836,0.598,6.212
			c0,0.152-0.076,0.224-0.224,0.264l-0.603,0.184c-0.143,0.04-0.295,0-0.371-0.224c-0.375-1.046-0.975-2.543-2.32-3.969
			c-0.975-1.046-2.172-1.568-3.893-1.568c-2.994,0-4.192,2.39-4.192,3.781c0,1.269,0.152,2.395,1.051,3.364
			c0.969,0.975,3.065,1.873,4.562,2.319c2.172,0.675,3.969,1.421,5.391,2.918c1.197,1.27,1.867,2.843,1.867,5.351
			c0,4.572-2.989,8.308-7.933,8.308c-3.065,0-4.862-0.67-6.359-1.791c-0.447-0.3-0.67-0.452-0.899-0.452
			c-0.223,0-0.371,0.299-0.599,0.67c-0.223,0.375-0.37,0.451-0.674,0.451c-0.294,0-0.447-0.223-0.447-0.599
			c0.077-0.446,0.599-6.511,0.676-6.958c0.035-0.224,0.076-0.299,0.223-0.299L121.271,268.334z"/>
		<path fill="#C4C4C3" d="M282.977,270.577c0.111,0.112,0.147,0.224,0.077,0.376c-2.248,3.218-5.843,6.283-11.157,6.283
			c-4.79,0-7.48-1.421-9.799-3.517c-2.772-2.472-4.041-6.812-4.041-10.105c0-3.664,1.197-7.182,3.817-10.029
			c2.015-2.167,5.232-3.964,9.724-3.964c3.446,0,6.212,1.051,7.562,1.797c0.522,0.3,0.671,0.3,0.746,0l0.299-0.975
			c0.076-0.223,0.153-0.223,0.601-0.223c0.445,0,0.522,0.076,0.522,0.599c0,0.676,0.751,6.664,0.897,7.785
			c0.041,0.224,0,0.336-0.146,0.371l-0.712,0.224c-0.188,0.075-0.299-0.072-0.411-0.371c-0.451-1.345-1.349-3.223-2.918-4.867
			c-1.648-1.568-3.593-2.766-6.511-2.766c-5.989,0-8.455,5.39-8.455,10.774c0,2.319,0.668,6.74,3.44,9.729
			c2.467,2.618,4.638,2.923,6.431,2.923c4.12,0,7.374-2.061,8.946-4.344c0.189-0.264,0.336-0.37,0.447-0.264L282.977,270.577z"/>
	</g>
	<g>
		<path fill="#C4C4C3" d="M174.269,343.419c-0.366,0-0.757,0.024-1.123,0.024c-0.365,0.031-0.73,0.062-1.126,0.062
			c-0.168,0-0.223,0-0.34-0.146c-0.05-0.219,0-0.392,0.172-0.559c1.127-1.072,3.543-3.259,5.735-5.792
			c1.909-2.304,3.036-4.496,2.979-6.886c-0.112-2.193-1.406-3.655-3.37-3.6c-1.97,0.057-2.928,1.406-3.492,2.361
			c-0.112,0.228-0.224,0.228-0.335,0.172l-0.452-0.228c-0.055-0.057-0.111-0.112,0-0.396c0.452-1.065,1.914-4.218,5.852-4.218
			c2.751,0,5.172,2.197,5.172,5.096c0,2.415-1.071,4.608-3.883,7.476c-1.796,1.798-3.486,3.146-4.44,4.051h5.172
			c1.858,0,2.588-1.128,3.207-2.142c0.167-0.279,0.224-0.34,0.503-0.163c0.284,0.107,0.371,0.219,0.284,0.452l-1.914,4.827
			c-0.112,0.228-0.056,0.284-0.396,0.284c-0.279,0-0.279-0.057-0.391-0.284c-0.167-0.336-0.675-0.392-1.685-0.392H174.269z"/>
		<path fill="#C4C4C3" d="M198.979,333.832c0,6.415-2.192,10.008-6.07,10.008c-4.837,0-6.41-5.507-6.41-8.938
			c0-6.354,2.42-10.688,6.354-10.688C197.635,324.214,198.979,329.614,198.979,333.832z M190.773,327.143
			c-0.675,1.969-0.899,5.06-0.899,7.308c0,2.701,0.167,4.726,0.67,6.014c0.619,1.691,1.406,2.25,2.365,2.25
			c0.898,0,1.685-0.447,2.137-1.914c0.446-1.345,0.619-3.48,0.619-7.526c0-4.445-0.959-7.933-2.812-7.933
			C191.844,325.341,191.225,325.96,190.773,327.143z"/>
		<path fill="#C4C4C3" d="M205.675,329.446c0-0.842-0.168-1.462-0.681-1.462c-0.274,0-0.671,0.056-1.177,0.224l-1.686,0.508
			c-0.112,0.056-0.229,0.056-0.285-0.056l-0.223-0.563c-0.056-0.112,0-0.224,0.173-0.336l6.461-3.374
			c0.168-0.087,0.34-0.173,0.508-0.173s0.224,0.117,0.224,0.451c0,0.229-0.112,4.613-0.112,8.238v1.183
			c0,0.953,0.057,6.293,0.057,6.663c0,1.462,0.116,1.63,1.684,1.63h1.016c0.224,0,0.28,0.085,0.28,0.197v0.706
			c0,0.161-0.057,0.223-0.28,0.223c-0.223,0-4.046-0.086-4.497-0.086c-0.564,0-4.496,0.086-4.669,0.086
			c-0.142,0-0.224-0.062-0.224-0.197v-0.731c0-0.168,0.111-0.197,0.309-0.197h1.098c1.685,0,1.913-0.056,1.969-1.543
			c0.057-0.792,0.057-5.061,0.057-5.848V329.446z"/>
		<path fill="#C4C4C3" d="M226.869,337.096c0,2.583-0.787,3.988-1.797,4.943c-1.178,1.188-2.359,1.801-4.33,1.801
			c-1.969,0-3.262-0.613-4.161-1.74c-1.519-1.802-1.803-3.879-1.803-5.345c0-3.654,1.574-6.912,3.995-9.222
			c1.689-1.573,3.376-2.472,4.893-3.035c0.619-0.167,1.011-0.284,1.183-0.284c0.168,0,0.392,0.173,0.392,0.345
			c0,0.224-0.111,0.446-0.447,0.559c-2.248,0.898-5.567,4.105-6.328,8.015l0.085,0.105c0.731-0.669,1.969-1.177,3.376-1.177
			C225.469,332.061,226.869,334.988,226.869,337.096z M218.662,334.48c-0.503,0.615-0.563,1.797-0.563,3.402
			c0,1.517,0.284,4.948,2.867,4.948c0.792,0,2.645-0.341,2.645-4.527c0-2.589-1.01-4.721-2.868-4.721
			C219.616,333.583,218.997,333.974,218.662,334.48z"/>
	</g>
	<g>
		<path fill="#C4C4C3" d="M167.36,206.993c0.036,2.021,0.112,5.685,0.112,6.36c0,1.943,0.675,2.695,1.497,2.918
			c0.599,0.147,1.497,0.305,2.918,0.305c0.67,0,2.396-0.076,3.142-0.157c0.675-0.071,2.096-0.447,3.07-1.27
			c0.67-0.593,2.766-3.07,3.477-3.969c0.153-0.183,0.264-0.219,0.417-0.146l0.599,0.375c0.111,0.071,0.147,0.183,0.071,0.376
			l-1.797,5.613c-0.106,0.334-0.371,0.558-0.822,0.558c-0.183,0-1.01-0.04-3.33-0.07c-2.355,0-6.212-0.041-12.46-0.041
			c-1.386,0-2.396,0.041-3.182,0.041c-0.746,0.03-1.273,0.07-1.609,0.07c-0.224,0-0.3-0.07-0.3-0.299v-0.898
			c0-0.223,0.076-0.3,0.375-0.3h1.274c1.721,0,1.873-0.224,1.873-1.608v-8.907v-3.664c0-3.071-0.076-7.71-0.152-8.232
			c-0.152-1.01-0.528-1.314-1.645-1.314h-1.426c-0.147,0-0.224-0.071-0.224-0.259v-0.969c0-0.188,0.036-0.265,0.224-0.265
			c0.828,0,2.172,0.152,5.242,0.111h1.046c1.645,0,10.252-0.075,11.896-0.075c0.599,0,1.31-0.036,1.498-0.036
			c0.187,0,0.264,0.076,0.304,0.223c0.147,0.487,1.569,5.578,1.716,5.954c0.076,0.218,0.04,0.33-0.107,0.411l-0.674,0.299
			c-0.117,0.036-0.229,0-0.34-0.192c-0.147-0.219-3.213-3.664-4.117-4.187c-0.786-0.452-1.796-0.939-2.842-0.975l-5.689-0.147
			l-0.076,10.814c1.126,0,3.816-0.08,4.268-0.192c0.823-0.146,1.274-0.446,1.721-1.345c0.224-0.482,0.599-1.422,0.599-2.091
			c0-0.229,0.152-0.3,0.3-0.3l0.974,0.071c0.147,0,0.265,0.076,0.224,0.3c-0.077,0.598-0.077,3.069-0.077,4.039
			c0,1.502,0.153,3.294,0.229,4.117c0,0.187-0.076,0.228-0.299,0.264l-0.828,0.146c-0.147,0.04-0.223-0.035-0.299-0.259
			c-0.147-0.604-0.412-1.426-0.599-1.872c-0.335-0.751-1.045-1.269-1.868-1.346c-1.35-0.151-3.147-0.224-4.344-0.224L167.36,206.993
			z"/>
		<path fill="#C4C4C3" d="M222.723,207.807c0,2.309,0.075,6.612,0.151,7.19c0.118,0.772,0.386,1.462,1.001,1.462h1.922
			c0.233,0,0.306,0.117,0.306,0.269v0.919c0,0.27-0.111,0.351-0.422,0.351c-0.496,0-1.269-0.111-5.262-0.111
			c-3.771,0-4.695,0.111-5.076,0.111c-0.233,0-0.31-0.111-0.31-0.351v-0.877c0-0.193,0.076-0.311,0.229-0.311h1.31
			c0.842,0,1.461-0.233,1.461-1.269c0.076-3.847,0.076-7.456,0.076-11.069v-10.114c0-1.311-0.538-1.924-1.228-1.924h-1.502
			c-0.192,0-0.27-0.076-0.27-0.229v-1.04c0-0.193,0.077-0.27,0.27-0.27c0.269,0,1.502,0.116,5.269,0.116
			c2.15,0,5.688-0.116,6.841-0.116c3.075,0,5.461,1.04,6.999,2.421c1.381,1.232,2.075,2.848,2.075,4.31
			c0,4.846-2.923,6.846-7.151,7.536v0.151c1.076,0.382,1.767,1.077,2.311,1.767c0.457,0.62,2.841,4.232,3.15,4.695
			c0.229,0.381,2.69,3.842,3.264,4.38c0.736,0.654,1.812,0.736,2.731,0.736c0.233,0,0.309,0.106,0.309,0.264v0.807
			c0,0.274-0.075,0.386-0.309,0.386c-0.305,0-1.311-0.111-3.767-0.111c-1.077,0-2.538,0.07-3.386,0.111
			c-0.457-0.351-1.191-1.386-1.689-2.192c-0.69-1.076-2.192-3.843-2.537-4.461c-0.386-0.69-1.463-2.457-2.075-3.304
			c-0.96-1.352-1.85-2.387-3.463-2.387c-0.151,0-0.807,0.041-1.228,0.076V207.807z M222.798,204.35
			c0.539,0.076,1.001,0.151,1.463,0.151c5.998,0,7.228-4.846,7.228-6.612c0-1.771-0.731-3.421-1.691-4.309
			c-1.385-1.229-3.156-1.65-5.074-1.65c-0.614,0-1.076,0.041-1.386,0.229c-0.311,0.193-0.463,0.655-0.463,1.117L222.798,204.35z"/>
	</g>
	<path fill="#7B7B7B" d="M200,243.958c12.562,0,22.742,10.186,22.742,22.742S212.562,289.438,200,289.438
		c-12.556,0-22.737-10.181-22.737-22.737S187.444,243.958,200,243.958 M200,240.673c-14.348,0-26.021,11.679-26.021,26.027
		c0,14.348,11.673,26.026,26.021,26.026c14.353,0,26.025-11.679,26.025-26.026C226.025,252.352,214.353,240.673,200,240.673
		L200,240.673z"/>
	<g>
		<path fill="#7B7B7B" d="M208.516,247.429c-2.989-1.223-5.125-1.669-8.49-1.832c-7.827,3.314-13.556,9.069-15.328,15.394v0.011
			l-0.01,0.035c-0.092,0.243-0.178,0.482-0.178,0.665c0,0.121,0.036,0.218,0.112,0.305c0.832,0.857,2.391,1.432,5.548,2.024h0.081
			h0.081c0.386-0.005,0.594-0.091,0.792-0.578C193.64,254.94,199.655,249.403,208.516,247.429z"/>
		<path fill="#7B7B7B" d="M183.677,260.812c1.874-6.364,6.954-11.922,13.684-15.048c-7.974,1.142-14.358,6.42-17.19,14.281
			c-0.045,0.133-0.096,0.265-0.152,0.396c-0.102,0.249-0.198,0.492-0.238,0.746c0.024,0.492,0.061,0.807,0.106,1.146
			c0.016,0.152,0.035,0.305,0.051,0.482c0.183,0.294,0.391,0.381,0.828,0.386c0.056,0,0.112-0.005,0.172-0.005
			c0.771-0.168,1.005-0.325,1.467-0.64c0.147-0.102,0.314-0.213,0.527-0.355C183.343,261.914,183.612,261.401,183.677,260.812z"/>
		<path fill="#7B7B7B" d="M200.274,267.847c-0.082-0.015-0.172-0.051-0.26-0.07c-0.172-0.056-0.283-0.091-0.395-0.091
			c-0.127,0-0.27,0.04-0.478,0.131l-0.046,0.025c-1.121,0.63-2.395,1.341-3.811,1.766c-0.224,0.077-0.431,0.107-0.629,0.107
			c-0.563,0-0.939-0.305-1.273-0.614c-0.874-0.873-1.396-1.812-1.944-2.807c-0.107-0.198-0.223-0.401-0.335-0.604
			c-0.233-0.392-0.614-0.6-1.076-0.6c-0.097,0-0.209,0.005-0.331,0.025l-0.03,0.005l-0.015-0.005
			c-1.752-0.259-3.238-0.746-5.32-1.735l-0.02-0.016l-0.021-0.016c-0.142-0.141-0.27-0.203-0.412-0.203
			c-0.167,0-0.365,0.093-0.644,0.296c-0.229,0.116-0.427,0.228-0.614,0.334c-0.523,0.305-1.021,0.589-1.782,0.711
			c-0.076,0.03-0.183,0.051-0.294,0.051c-0.437,0-1.02-0.254-1.253-0.817c-0.062-0.147-0.102-0.259-0.132-0.36
			c-0.122,0.908-0.224,2.269-0.224,3.314c0,0.249,0,0.477,0.011,0.659c4.816,5.619,10.607,8.471,17.2,8.471
			c1.822,0,3.726-0.223,5.643-0.664c0.289-0.092,0.36-0.193,0.488-0.371c0.07-0.091,0.151-0.213,0.289-0.345
			c0.893-1.269,1.249-2.106,1.609-3.071c0.034-0.161,0.061-0.31,0.061-0.42c0-0.184-0.046-0.331-0.351-0.686
			C202.608,269.11,201.761,268.548,200.274,267.847z"/>
		<path fill="#7B7B7B" d="M205.218,284.215c-0.168-0.081-0.355-0.178-0.589-0.304c-0.193-0.103-0.427-0.153-0.689-0.153
			c-0.29,0-0.605,0.066-0.909,0.193c-1.608,0.386-3.273,0.578-4.959,0.578c-5.111,0-10.379-1.756-14.917-4.958
			c4.081,5.212,10.166,8.187,16.84,8.187c1.359,0,2.736-0.122,4.085-0.36c0.163-0.041,0.326-0.066,0.488-0.087
			c0.253-0.035,0.486-0.076,0.729-0.167c0.438-0.3,0.702-0.497,1.011-0.716l0.31-0.223c0.077-0.133,0.111-0.249,0.111-0.371
			c0-0.188-0.091-0.4-0.284-0.7C205.944,284.57,205.685,284.443,205.218,284.215z"/>
		<path fill="#7B7B7B" d="M206.364,261.066c-0.233-0.198-0.35-0.208-0.568-0.238c-0.111-0.011-0.253-0.025-0.437-0.076
			c-0.451-0.03-0.883-0.051-1.279-0.051c-0.843,0-1.502,0.086-2.207,0.188c-0.498,0.152-0.594,0.223-0.781,0.828
			c-0.27,1.218-0.366,2.004-0.366,2.882c0,0.427,0.021,0.889,0.076,1.406l0.046,0.213c0.08,0.437,0.096,0.513,0.476,0.817
			c1.111,0.624,2.421,1.396,3.482,2.432c0.416,0.39,0.608,0.791,0.608,1.248c0,0.229-0.045,0.452-0.091,0.645
			c-0.34,1.228-0.894,2.146-1.473,3.126c-0.111,0.184-0.223,0.365-0.335,0.559c-0.111,0.203-0.178,0.421-0.178,0.635
			c0,0.294,0.122,0.588,0.367,0.888l0.02,0.015l0.01,0.025c0.64,1.695,0.965,3.233,1.162,5.481v0.025l-0.01,0.026
			c-0.016,0.086-0.03,0.156-0.03,0.223c0,0.249,0.173,0.416,0.63,0.619c0.222,0.138,0.41,0.249,0.598,0.355
			c0.533,0.3,1.035,0.584,1.528,1.229c0.207,0.162,0.351,0.542,0.351,0.938c0,0.289-0.077,0.543-0.224,0.762
			c-0.102,0.122-0.173,0.213-0.243,0.294c1.064-0.462,2.688-1.269,3.502-1.802c1.055-2.959,1.577-5.867,1.577-8.644
			C212.576,270.547,210.491,265.482,206.364,261.066z"/>
		<path fill="#7B7B7B" d="M212.713,256.407l-0.101-0.106c-0.229-0.259-0.427-0.482-0.65-0.482l0,0c-0.034,0-0.065,0.005-0.096,0.016
			c-1.156,0.264-2.472,1.355-4.527,3.771c-0.167,0.233-0.233,0.396-0.233,0.563c0,0.173,0.071,0.351,0.233,0.554
			c4.156,4.399,6.36,9.734,6.36,15.403c0,2.502-0.423,5.086-1.249,7.699c2.588-2.01,4.054-3.639,5.866-6.461
			c0.183-1.421,0.274-2.878,0.274-4.31C218.591,266.218,216.504,260.305,212.713,256.407z"/>
		<path fill="#7B7B7B" d="M213.358,255.605c4.04,4.253,6.258,10.181,6.258,16.713c0,0.894-0.046,1.786-0.128,2.675
			c1.047-2.583,1.574-5.278,1.574-8.024c0-5.065-1.817-9.912-5.259-14.008c-0.116-0.127-0.217-0.264-0.313-0.391
			c-0.153-0.198-0.299-0.375-0.488-0.543c-0.477-0.243-0.775-0.366-1.131-0.508c-0.116-0.045-0.239-0.097-0.371-0.147
			c-0.01,0-0.02,0-0.029,0c-0.005,0-0.005,0-0.017,0c-0.329,0-0.527,0.163-0.775,0.655c-0.168,0.543-0.199,0.832-0.199,1.121
			c0,0.152,0.012,0.311,0.021,0.497c0.01,0.173,0.024,0.366,0.029,0.61C212.562,254.732,212.871,255.25,213.358,255.605z"/>
		<path fill="#7B7B7B" d="M212.902,250.271c0.034,0,0.07,0,0.095,0.005c0.163,0.025,0.289,0.046,0.387,0.065
			c-0.914-0.695-2.431-1.7-3.299-2.131c-9.283,1.73-15.562,7.237-18.15,15.921c-0.021,0.092-0.03,0.173-0.03,0.243
			c0,0.133,0.035,0.224,0.102,0.356c0.05,0.101,0.111,0.238,0.167,0.421c0.61,1.354,1.158,2.056,1.848,2.938
			c0.269,0.253,0.411,0.341,0.644,0.346c0.117,0,0.259-0.031,0.447-0.077c1.679-0.548,2.547-0.975,3.873-1.918
			c0.065-0.066,0.142-0.132,0.203-0.183c0.29-0.254,0.365-0.325,0.416-0.776c0-1.294,0-2.781,0.366-4.253
			c0.188-0.965,0.822-1.193,1.38-1.392c0.964-0.254,1.849-0.284,2.66-0.284c0.233,0,0.467,0,0.7,0
			c0.243,0.005,0.481,0.005,0.727,0.005c0.603-0.03,0.969-0.319,1.191-0.938l0.011-0.03l0.016-0.016
			c1.176-1.421,2.35-2.467,4.182-3.74l0.02-0.016l0.026-0.01c0.314-0.076,0.44-0.259,0.44-0.645c0-0.092-0.005-0.183-0.02-0.29
			c0.005-0.142,0.005-0.269,0.005-0.39v-0.239v-0.238c0-0.513,0.02-1.071,0.294-1.761
			C211.668,250.854,212.207,250.281,212.902,250.271z"/>
		<g>
			<path fill="#7B7B7B" d="M202.588,276.739c-0.224-0.406-0.369-0.558-0.751-0.563c-0.07,0-0.146,0.006-0.233,0.021
				c-1.898,0.452-3.812,0.675-5.679,0.675c-6.37,0-12.196-2.705-16.86-7.831c0.411,3.177,1.096,5.328,2.624,8.298
				c5.218,3.979,11.075,6.167,16.5,6.167c1.558,0,3.061-0.179,4.466-0.538l0.143-0.025c0.462-0.082,0.7-0.143,0.78-0.406
				c0.088-0.305,0.129-0.649,0.129-1.021C203.706,280.43,203.365,278.957,202.588,276.739z"/>
		</g>
	</g>
	<path fill="#F5F6F7" d="M200,116.349"/>
	<g>
		<path fill="#020202" d="M200,227.996c-21.377,0-38.699,17.332-38.699,38.704c0,21.377,17.322,38.699,38.699,38.699
			c21.377,0,38.699-17.322,38.699-38.699C238.699,245.328,221.377,227.996,200,227.996z M200,296.427
			c-16.394,0-29.727-13.334-29.727-29.727c0-16.394,13.333-29.727,29.727-29.727s29.731,13.333,29.731,29.727
			C229.731,283.093,216.394,296.427,200,296.427z"/>
		<path fill="#020202" d="M200,220.402c-25.57,0-46.297,20.728-46.297,46.298c0,25.564,20.728,46.292,46.297,46.292
			c25.569,0,46.297-20.728,46.297-46.292C246.297,241.13,225.569,220.402,200,220.402z M200,308.374
			c-22.981,0-41.674-18.692-41.674-41.674c0-22.976,18.692-41.668,41.674-41.668c22.98,0,41.674,18.692,41.674,41.668
			C241.674,289.682,222.98,308.374,200,308.374z"/>
		<path fill="#020202" d="M323.133,244.855c-0.193-4.72-0.768-9.506-1.716-14.231c-1.852-9.298-5.091-18.291-9.618-26.736
			c-4.588-8.552-10.343-16.23-17.093-22.823c-7.115-6.953-15.14-12.471-23.845-16.414c-8.902-4.05-18.747-6.41-28.482-6.836
			c-1.177-0.052-2.346-0.072-3.476-0.072c-8.335,0-16.811,1.32-25.185,3.919c-4.518,1.401-9.131,3.223-13.719,5.415
			c-4.583-2.192-9.196-4.014-13.714-5.415c-8.375-2.599-16.85-3.919-25.184-3.919c-1.131,0-2.304,0.021-3.481,0.072
			c-9.729,0.426-19.581,2.786-28.478,6.831c-8.705,3.943-16.724,9.466-23.849,16.419c-6.756,6.593-12.506,14.276-17.094,22.823
			c-4.521,8.44-7.76,17.434-9.623,26.736c-0.939,4.735-1.518,9.521-1.711,14.231c-0.101,2.335-0.101,4.766-0.005,7.212
			c0.086,2.203,0.244,4.462,0.473,6.908c0.882,9.247,2.801,18.362,5.694,27.082c2.867,8.663,6.755,17.104,11.552,25.098
			c4.578,7.647,10.094,15.033,16.382,21.95c5.873,6.467,12.552,12.658,19.85,18.398c6.791,5.335,14.236,10.385,22.139,15.008
			c7.354,4.299,15.292,8.35,23.59,12.024c7.207,3.191,14.967,6.217,23.067,8.982l0.391,0.136l0.396-0.136
			c8.09-2.761,15.85-5.786,23.068-8.982c8.292-3.675,16.229-7.726,23.584-12.024c7.902-4.623,15.354-9.673,22.139-15.008
			c7.293-5.735,13.972-11.927,19.855-18.398c6.287-6.917,11.799-14.303,16.383-21.95c4.792-7.988,8.673-16.435,11.547-25.098
			c2.897-8.735,4.815-17.85,5.694-27.082c0.229-2.37,0.38-4.629,0.477-6.908C323.235,249.586,323.235,247.159,323.133,244.855z
			 M302.243,251.829c-0.076,1.903-0.214,3.842-0.392,5.751c-0.736,7.663-2.313,15.221-4.729,22.503
			c-2.416,7.284-5.66,14.304-9.633,20.921c-3.975,6.629-8.669,12.861-13.928,18.643c-5.252,5.785-11.075,11.124-17.302,16.022
			c-6.228,4.893-12.855,9.354-19.768,13.394c-6.919,4.046-14.114,7.679-21.505,10.958c-4.912,2.177-9.923,4.177-14.987,6.056
			c-5.065-1.879-10.075-3.879-14.987-6.056c-7.39-3.279-14.586-6.912-21.504-10.958c-6.913-4.04-13.541-8.501-19.769-13.394
			c-6.228-4.898-12.044-10.237-17.302-16.022c-5.258-5.781-9.952-12.014-13.926-18.643c-3.974-6.617-7.217-13.637-9.633-20.921
			c-2.416-7.282-3.994-14.84-4.729-22.503c-0.178-1.909-0.315-3.848-0.391-5.751c-0.071-1.832-0.076-3.67,0.005-5.512
			c0.153-3.675,0.599-7.359,1.324-10.993c1.452-7.277,4.02-14.384,7.542-20.951c3.522-6.562,8.004-12.602,13.272-17.743
			c5.263-5.136,11.313-9.363,17.87-12.333c6.558-2.974,13.607-4.669,20.779-4.983c7.176-0.32,14.465,0.73,21.544,2.934
			c6.877,2.121,13.552,5.323,19.906,9.236c6.354-3.913,13.028-7.115,19.906-9.236c7.079-2.203,14.367-3.254,21.544-2.934
			c7.172,0.314,14.222,2.01,20.778,4.983c6.558,2.97,12.608,7.197,17.87,12.333c5.269,5.142,9.75,11.182,13.271,17.743
			c3.523,6.567,6.091,13.674,7.543,20.951c0.725,3.634,1.172,7.318,1.325,10.993C302.318,248.159,302.313,249.997,302.243,251.829z"
			/>
	</g>
	<path fill="#7B7B7B" d="M329.075,244.394c-0.202-5.015-0.816-10.104-1.82-15.139c-1.971-9.877-5.407-19.424-10.207-28.382
		c-4.878-9.09-10.999-17.256-18.186-24.275c-7.618-7.436-16.215-13.354-25.549-17.576c-9.578-4.354-20.186-6.896-30.675-7.358
		c-1.244-0.051-2.498-0.081-3.735-0.081c-8.934,0-18.003,1.41-26.956,4.191c-3.923,1.218-7.942,2.74-11.947,4.543
		c-3.994-1.798-8.014-3.325-11.957-4.543c-8.943-2.781-18.008-4.191-26.94-4.191c-1.233,0-2.492,0.03-3.751,0.081
		c-10.485,0.462-21.092,3.004-30.675,7.363c-9.329,4.223-17.921,10.136-25.539,17.571c-7.192,7.024-13.308,15.191-18.186,24.271
		c-4.796,8.958-8.231,18.51-10.206,28.381c-1.005,5.025-1.62,10.12-1.827,15.154c-0.101,2.508-0.106,5.097-0.005,7.694
		c0.096,2.33,0.259,4.695,0.492,7.228c0.929,9.704,2.938,19.261,5.974,28.402c3.005,9.069,7.076,17.916,12.095,26.284
		c4.791,7.994,10.536,15.693,17.083,22.89c6.085,6.705,13.008,13.121,20.576,19.074c7.004,5.507,14.683,10.708,22.813,15.464
		c7.547,4.421,15.683,8.572,24.184,12.334c7.37,3.264,15.292,6.348,23.555,9.176L200,393.74l2.318-0.791
		c8.253-2.821,16.181-5.907,23.551-9.176c8.497-3.762,16.631-7.913,24.188-12.334c8.137-4.761,15.81-9.963,22.809-15.464
		c7.553-5.934,14.475-12.348,20.576-19.074c6.553-7.201,12.303-14.9,17.083-22.89c5.021-8.363,9.091-17.21,12.095-26.289
		c3.04-9.151,5.05-18.708,5.969-28.387c0.238-2.447,0.401-4.812,0.498-7.228C329.188,249.449,329.183,246.851,329.075,244.394z
		 M161.103,158.772c8.491,0,16.901,1.406,24.824,3.868c4.877,1.513,9.567,3.416,14.074,5.603c4.513-2.187,9.196-4.09,14.073-5.603
		c7.923-2.462,16.334-3.868,24.83-3.868c1.136,0,2.282,0.026,3.425,0.077c9.647,0.415,19.257,2.735,28.032,6.72
		c8.785,3.984,16.723,9.566,23.498,16.18c6.785,6.623,12.44,14.268,16.876,22.535c4.43,8.268,7.652,17.169,9.495,26.391
		c0.918,4.619,1.497,9.319,1.69,14.05c0.101,2.364,0.096,4.74,0.01,7.109c-0.097,2.305-0.254,4.562-0.472,6.848
		c-0.867,9.095-2.756,18.123-5.64,26.812c-2.882,8.694-6.749,17.048-11.435,24.859c-4.684,7.815-10.181,15.089-16.241,21.758
		c-6.063,6.669-12.698,12.749-19.707,18.256c-7.004,5.507-14.384,10.46-21.996,14.917c-7.618,4.45-15.471,8.419-23.469,11.957
		c-7.541,3.344-15.216,6.299-22.971,8.952c-7.755-2.653-15.43-5.608-22.966-8.952c-8.004-3.538-15.855-7.507-23.469-11.957
		c-7.618-4.457-14.992-9.41-22.001-14.917c-7.004-5.507-13.637-11.587-19.702-18.256c-6.065-6.669-11.557-13.942-16.241-21.758
		c-4.685-7.812-8.557-16.165-11.44-24.859c-2.882-8.689-4.771-17.718-5.639-26.812c-0.213-2.285-0.375-4.543-0.467-6.848
		c-0.091-2.369-0.091-4.745,0.006-7.109c0.198-4.73,0.771-9.431,1.69-14.05c1.847-9.222,5.07-18.123,9.5-26.391
		c4.431-8.268,10.09-15.912,16.871-22.535c6.78-6.613,14.714-12.195,23.499-16.18c8.775-3.984,18.388-6.305,28.031-6.72
		C158.818,158.799,159.956,158.772,161.103,158.772z"/>
	<g>
		<path fill="#020202" d="M238.903,152.414c1.237,0,2.486,0.03,3.699,0.086c10.379,0.451,20.89,2.969,30.375,7.283
			c9.253,4.187,17.77,10.049,25.321,17.418c7.126,6.959,13.191,15.06,18.037,24.078c4.761,8.887,8.168,18.357,10.127,28.157
			c0.994,4.989,1.604,10.045,1.806,15.014c0.106,2.44,0.111,5.015,0.005,7.653c-0.096,2.375-0.253,4.72-0.491,7.182
			c-0.914,9.617-2.909,19.108-5.93,28.203c-2.989,9.029-7.033,17.819-12.022,26.129c-4.756,7.938-10.47,15.601-16.982,22.768
			c-6.068,6.68-12.956,13.063-20.482,18.981c-6.965,5.471-14.608,10.653-22.718,15.398c-7.517,4.4-15.627,8.532-24.104,12.292
			c-7.358,3.259-15.262,6.335-23.488,9.152L200,392.913l-2.056-0.704c-8.237-2.817-16.14-5.898-23.489-9.152
			c-8.476-3.76-16.586-7.892-24.103-12.292c-8.11-4.745-15.753-9.928-22.717-15.398c-7.531-5.923-14.419-12.312-20.479-18.981
			c-6.517-7.167-12.231-14.83-16.987-22.763c-4.989-8.319-9.035-17.114-12.019-26.123c-3.02-9.09-5.015-18.586-5.938-28.225
			c-0.233-2.512-0.396-4.862-0.487-7.191c-0.106-2.578-0.101-5.146,0-7.623c0.208-4.979,0.817-10.034,1.812-15.028
			c1.959-9.795,5.37-19.271,10.13-28.152c4.837-9.009,10.902-17.114,18.038-24.078c7.552-7.374,16.069-13.236,25.305-17.418
			c9.496-4.314,20.007-6.832,30.376-7.283c1.228-0.056,2.477-0.086,3.715-0.086c8.851,0,17.839,1.4,26.701,4.151
			c4.024,1.249,8.121,2.812,12.196,4.659c4.08-1.848,8.171-3.41,12.19-4.654C221.058,153.814,230.045,152.414,238.903,152.414
			 M238.903,146.06c-9.497,0-19.119,1.492-28.602,4.445c-3.395,1.046-6.851,2.315-10.302,3.781
			c-3.451-1.466-6.908-2.735-10.319-3.791c-9.465-2.943-19.083-4.436-28.579-4.436c-1.324,0-2.665,0.031-3.994,0.086
			c-11.181,0.482-22.499,3.203-32.73,7.852c-9.908,4.486-19.033,10.77-27.113,18.657c-7.598,7.42-14.059,16.038-19.2,25.615
			c-5.055,9.444-8.679,19.51-10.76,29.919c-1.056,5.304-1.71,10.688-1.929,16.008c-0.112,2.654-0.112,5.395-0.005,8.141
			c0.102,2.446,0.269,4.903,0.513,7.531c0.97,10.121,3.066,20.089,6.232,29.63c3.131,9.451,7.37,18.668,12.602,27.393
			c4.974,8.298,10.938,16.296,17.733,23.772c6.293,6.929,13.444,13.556,21.25,19.692c7.197,5.658,15.079,11.009,23.443,15.901
			c7.725,4.518,16.048,8.761,24.737,12.612c7.521,3.329,15.597,6.475,24.007,9.354l2.055,0.699l2.056,0.705l2.056-0.705l2.056-0.699
			c8.414-2.88,16.495-6.025,24.007-9.354c8.688-3.852,17.007-8.095,24.737-12.612c8.367-4.897,16.256-10.248,23.438-15.892
			c7.801-6.137,14.946-12.764,21.26-19.707c6.792-7.472,12.761-15.47,17.733-23.772c5.223-8.705,9.466-17.927,12.603-27.397
			c3.167-9.541,5.263-19.504,6.222-29.604c0.243-2.558,0.416-5.02,0.518-7.526c0.107-2.822,0.107-5.573-0.01-8.183
			c-0.213-5.277-0.857-10.662-1.924-15.981c-2.081-10.414-5.699-20.479-10.759-29.919c-5.147-9.593-11.607-18.21-19.201-25.62
			c-8.074-7.888-17.204-14.171-27.137-18.662c-10.207-4.644-21.529-7.364-32.721-7.847
			C241.567,146.091,240.228,146.06,238.903,146.06L238.903,146.06z"/>
		<path fill-rule="evenodd" clip-rule="evenodd" fill="#020202" d="M117.526,162.468l10.693-6.477
			c-0.086-0.01-0.178-0.02-0.254-0.035c-1.085-0.238-2.552-0.842-3.298-1.203c-5.832-2.842-10.156-8.662-13.805-13.651
			c-2.655-3.625-5.004-7.218-7.801-10.354c-5.679-6.364-14.165-10.476-18.753-17.703c-4.487-7.06-7.436-17.159-11.552-24.904
			c-2.259-4.243-4.41-8.156-4.05-13.952c0.431-6.983,2.715-13.14,4.649-18.453c2.229-6.132,5.466-9.654,9.45-13.801
			c7.435-7.74,14.886-15.749,17.556-28.66c-1.401,0.386-2.471,2.243-3.299,3.451c-6.126,8.958-10.42,17.556-19.505,23.555
			c-1.325,0.878-3.649,2.224-5.252,1.948c-2.67-0.445-3.741-6.643-4.649-9.597c-1.137-3.69-2.335-7.831-2.554-11.704
			c-0.278-5.039,0.828-9.237,2.102-12.45c1.07-2.705,2.862-5.034,3.152-8.104c-0.102,0-0.204,0-0.3,0
			C67.483,2.234,65.6,5.939,63.9,9.522c-1.599,3.381-3.025,7.061-3.299,11.105c-0.331,4.928,0.679,9.581,1.801,14.104
			c1.086,4.381,3,8.872,3,13.201c0,3.898-0.979,7.217-1.949,10.953c-0.777,2.989-1.975,8.09-4.801,8.101
			c-1.802,0.005-3.655-2.746-4.654-3.604c-1.609-1.375-3.137-2.897-3.599-4.796c-0.877-3.629,1.452-8.491,2.249-12.754
			c0.39-2.07,0.716-4.229,0.751-6.299c0.04-1.929,0.259-4.532-1.497-5.853c-1.3,1.595-1.061,4.025-1.35,6.304
			c-0.279,2.167-0.696,4.461-1.35,6.446c-0.843,2.527-3.471,8.847-6.152,9.455c-2.425,0.548-5.908-1.67-7.801-2.847
			c-2.385-1.492-4.217-3.127-5.557-5.405c-1.934-3.305-2.355-8.167-4.344-11.405c-0.858,8.345,1.954,16.562,6.75,20.702
			c2.232,1.935,5.242,3.325,7.953,4.808c8.212,4.486,15.17,10.485,20.103,18.301c3.183,5.045,6.03,10.592,8.999,16.5
			c1.334,2.655,2.664,5.512,3.903,8.857c0.827,2.243,3.177,7.435,2.249,10.353c-1.077,3.371-8.963,3.351-13.8,3.147
			c-14.383-0.609-22.103-6.68-28.056-15.155c-1.163-1.655-1.995-3.685-3.756-4.948c-0.061,4.127,1.954,7.629,3.756,10.648
			c5.557,9.328,14.109,15.383,26.853,17.261c4.411,0.645,8.928,0.411,13.506,0.299c9.328-0.229,14.738,4.766,20.403,8.994
			c2.269,1.7,7.176,4.547,7.049,7.653c-0.071,1.822-2.279,3.37-3.75,4.502c-4.518,3.472-10.78,7.232-17.252,7.806
			c-8.968,0.792-14.703-2.324-18.905-6.009c-1.417-1.238-2.888-2.857-4.948-3.146c1.721,4.05,4.263,6.517,6.897,8.703
			c2.796,2.32,5.999,4.284,10.206,5.401c6.964,1.842,14.795,0.608,19.5-2.102c1.624-0.938,2.867-2.33,4.654-3.152
			c4.73-2.172,11.623-0.583,15.302,1.351C114.648,157.89,116.684,160.067,117.526,162.468z"/>
		<path fill-rule="evenodd" clip-rule="evenodd" fill="#020202" d="M366.552,103.741c-5.953,8.476-13.672,14.546-28.057,15.155
			c-4.836,0.203-12.723,0.224-13.799-3.147c-0.934-2.918,1.416-8.109,2.248-10.353c1.238-3.346,2.568-6.202,3.902-8.857
			c2.97-5.908,5.812-11.455,8.999-16.5c4.934-7.815,11.892-13.814,20.104-18.301c2.705-1.482,5.721-2.873,7.954-4.808
			c4.795-4.141,7.606-12.357,6.749-20.702c-1.988,3.238-2.411,8.101-4.351,11.405c-1.339,2.278-3.166,3.913-5.551,5.405
			c-1.894,1.177-5.375,3.395-7.801,2.847c-2.681-0.608-5.31-6.928-6.151-9.455c-0.66-1.985-1.071-4.279-1.351-6.446
			c-0.289-2.278-0.046-4.709-1.35-6.304c-1.757,1.32-1.538,3.924-1.497,5.853c0.035,2.07,0.36,4.229,0.751,6.299
			c0.791,4.263,3.131,9.125,2.248,12.754c-0.462,1.898-1.995,3.421-3.604,4.796c-0.994,0.858-2.847,3.609-4.649,3.604
			c-2.826-0.011-4.024-5.111-4.802-8.101c-0.968-3.736-1.947-7.055-1.947-10.953c0-4.329,1.913-8.82,2.999-13.201
			c1.121-4.522,2.132-9.176,1.802-14.104c-0.274-4.045-1.701-7.725-3.299-11.105c-1.701-3.583-3.584-7.288-6.157-9.15
			c-0.096,0-0.197,0-0.294,0c0.279,3.07,2.077,5.399,3.146,8.104c1.273,3.213,2.381,7.411,2.102,12.45
			c-0.218,3.873-1.416,8.014-2.549,11.704c-0.913,2.954-1.983,9.151-4.653,9.597c-1.604,0.275-3.928-1.07-5.253-1.948
			c-9.084-5.999-13.378-14.597-19.505-23.555c-0.826-1.208-1.897-3.065-3.298-3.451c2.669,12.911,10.12,20.92,17.555,28.66
			c3.984,4.146,7.223,7.669,9.45,13.801c1.93,5.313,4.217,11.47,4.649,18.453c0.36,5.796-1.791,9.709-4.051,13.952
			c-4.115,7.745-7.064,17.845-11.551,24.904c-4.589,7.228-13.073,11.339-18.753,17.703c-2.797,3.137-5.146,6.729-7.801,10.354
			c-3.649,4.989-7.974,10.81-13.806,13.651c-0.746,0.361-2.212,0.965-3.299,1.203c-0.4,0.087-0.928,0.122-1.462,0.168l0,0
			l12.146,5.73c0.948-2.152,2.781-4.04,4.319-4.853c3.679-1.934,10.571-3.522,15.303-1.351c1.791,0.822,3.028,2.214,4.654,3.152
			c4.704,2.71,12.535,3.943,19.503,2.102c4.197-1.117,7.405-3.081,10.202-5.401c2.634-2.187,5.177-4.653,6.896-8.703
			c-2.065,0.289-3.531,1.908-4.947,3.146c-4.202,3.685-9.938,6.801-18.905,6.009c-6.472-0.573-12.739-4.334-17.252-7.806
			c-1.471-1.132-3.68-2.68-3.75-4.502c-0.127-3.106,4.78-5.953,7.05-7.653c5.663-4.229,11.074-9.223,20.402-8.994
			c4.578,0.112,9.096,0.346,13.505-0.299c12.744-1.878,21.296-7.933,26.854-17.261c1.802-3.02,3.817-6.521,3.75-10.648
			C368.547,100.057,367.714,102.086,366.552,103.741z"/>
	</g>
</g>
</svg>
