<?xml version="1.0" encoding="utf-8"?>
<!-- Generator: Adobe Illustrator 15.0.0, SVG Export Plug-In . SVG Version: 6.00 Build 0)  -->
<!DOCTYPE svg PUBLIC "-//W3C//DTD SVG 1.1//EN" "http://www.w3.org/Graphics/SVG/1.1/DTD/svg11.dtd">
<svg version="1.1" id="Layer_1" xmlns="http://www.w3.org/2000/svg" xmlns:xlink="http://www.w3.org/1999/xlink" x="0px" y="0px"
	 width="60px" height="60px" viewBox="0 0 60 60" enable-background="new 0 0 60 60" xml:space="preserve">
<g>
	<path fill="#AD9840" d="M279.972,30.823c-0.019,0.053-0.038,0.104-0.038,0.146c0,0.027,0.008,0.055,0.029,0.078
		c0.18,0.186,0.521,0.297,1.104,0.406c0.014,0,0.025,0,0.039,0c0.08,0,0.136-0.021,0.181-0.131c0.466-1.57,1.602-2.756,3.483-3.143
		c-0.661-0.277-1.1-0.367-1.771-0.4C281.498,28.415,280.334,29.53,279.972,30.823z"/>
	<path fill="#AD9840" d="M279.084,30.634c-0.027,0.08-0.064,0.15-0.078,0.23c0.006,0.15,0.02,0.215,0.032,0.334
		c0.044,0.072,0.096,0.094,0.188,0.096c0.012,0,0.024-0.002,0.037-0.002c0.212-0.045,0.229-0.088,0.405-0.199
		c0.089-0.064,0.146-0.172,0.159-0.295c0.404-1.373,1.526-2.449,2.844-3.006C281.08,27.95,279.686,28.962,279.084,30.634z"/>
	<path fill="#AD9840" d="M282.246,33.765c0.363,0,0.736-0.045,1.112-0.131c0.102-0.033,0.093-0.076,0.165-0.148
		c0.175-0.244,0.245-0.406,0.322-0.613c0.01-0.037,0.016-0.066,0.015-0.092c0-0.049-0.019-0.086-0.077-0.154
		c-0.246-0.219-0.413-0.336-0.716-0.477c-0.069-0.02-0.103-0.035-0.142-0.035l0,0c-0.028,0-0.059,0.006-0.105,0.027
		c-0.221,0.123-0.474,0.268-0.754,0.352c-0.043,0.014-0.08,0.018-0.113,0.018c-0.102,0-0.168-0.053-0.23-0.111
		c-0.203-0.201-0.307-0.424-0.442-0.662c-0.048-0.08-0.126-0.133-0.235-0.133c-0.021,0-0.044,0.002-0.07,0.008
		c-0.344-0.053-0.637-0.15-1.035-0.34c-0.034-0.035-0.066-0.049-0.1-0.049h-0.002c-0.043,0-0.09,0.025-0.142,0.062
		c-0.155,0.078-0.26,0.168-0.462,0.201c-0.014,0.006-0.029,0.01-0.05,0.01c-0.071,0-0.177-0.043-0.218-0.143
		c-0.053-0.131-0.037-0.137-0.062-0.189c-0.031,0.154-0.064,0.521-0.064,0.781c0,0.053,0.001,0.102,0.003,0.139
		C279.826,33.233,280.99,33.765,282.246,33.765z"/>
	<g>
		<path fill="#AD9840" d="M283.361,33.778c-0.016,0-0.033,0.002-0.051,0.004c-0.371,0.09-0.742,0.135-1.109,0.135
			c-1.208,0-2.375-0.494-3.348-1.596c0.084,0.709,0.227,1.139,0.533,1.734c1.013,0.773,2.178,1.221,3.26,1.221l0,0
			c0.302,0,0.598-0.035,0.881-0.109c0.1-0.018,0.18-0.025,0.202-0.104c0.018-0.062,0.026-0.131,0.026-0.209
			c0-0.229-0.075-0.533-0.221-0.945C283.49,33.825,283.454,33.78,283.361,33.778z"/>
		<polygon fill="#AD9840" points="279.382,34.062 279.382,34.062 279.382,34.062 		"/>
	</g>
	<path fill="#AD9840" d="M283.922,35.298c-0.046-0.021-0.097-0.033-0.148-0.033c-0.064,0-0.129,0.016-0.19,0.041
		c-0.317,0.076-0.638,0.111-0.96,0.111c-1.094,0-2.187-0.414-3.064-1.082c0.782,1.098,2.023,1.773,3.441,1.773
		c0.264,0,0.533-0.023,0.807-0.072c0.086-0.018,0.162-0.018,0.244-0.051c0.123-0.084,0.174-0.123,0.27-0.191
		c0.02-0.033,0.029-0.062,0.029-0.09c0-0.047-0.022-0.096-0.061-0.154C284.146,35.388,284.098,35.397,283.922,35.298z"/>
	<path fill="#AD9840" d="M285.496,33.796c0-1.125-0.438-2.125-1.226-2.971c-0.083-0.068-0.112-0.043-0.212-0.068
		c-0.097-0.01-0.182-0.014-0.258-0.014c-0.162,0-0.29,0.016-0.438,0.037c-0.109,0.033-0.137,0.055-0.176,0.184
		c-0.049,0.221-0.074,0.387-0.074,0.574c0,0.086,0.005,0.176,0.015,0.277c0.026,0.125,0.019,0.145,0.113,0.225
		c0.221,0.123,0.474,0.27,0.683,0.473c0.084,0.078,0.109,0.154,0.109,0.225c0,0.041-0.008,0.08-0.017,0.121
		c-0.078,0.279-0.216,0.48-0.351,0.713c-0.025,0.043-0.039,0.09-0.039,0.139c0,0.061,0.023,0.127,0.078,0.193
		c0.123,0.324,0.188,0.623,0.227,1.066c-0.005,0.02-0.008,0.037-0.008,0.051c0,0.072,0.055,0.109,0.141,0.148
		c0.148,0.096,0.279,0.137,0.409,0.305c0.031,0.023,0.06,0.092,0.06,0.164c0,0.043-0.011,0.09-0.038,0.133
		c-0.089,0.113-0.103,0.102-0.138,0.15c0.177-0.062,0.623-0.277,0.824-0.41C285.395,34.911,285.496,34.341,285.496,33.796z"/>
	<g>
		<path fill="#AD9840" d="M286.621,34.052c0.036-0.289,0.055-0.574,0.055-0.855c0-1.299-0.391-2.494-1.162-3.285
			c-0.058-0.062-0.104-0.125-0.166-0.125h-0.002c-0.008,0-0.018,0.002-0.025,0.004c-0.25,0.059-0.521,0.303-0.903,0.748
			c-0.032,0.047-0.053,0.086-0.053,0.131c0,0.037,0.015,0.078,0.052,0.127c0.783,0.828,1.242,1.846,1.242,3.004
			c0,0.504-0.088,1.035-0.273,1.588C285.955,34.956,286.256,34.622,286.621,34.052z"/>
		<polygon fill="#AD9840" points="286.627,34.054 286.627,34.054 286.627,34.054 		"/>
	</g>
	<path fill="#AD9840" d="M286.771,33.767c0.257-0.561,0.389-1.162,0.389-1.764c0-0.963-0.336-1.93-1.037-2.766
		c-0.059-0.066-0.098-0.131-0.16-0.188c-0.135-0.07-0.199-0.09-0.309-0.135c-0.004,0-0.01,0-0.015,0
		c-0.084,0-0.13,0.047-0.179,0.145c-0.033,0.107-0.043,0.17-0.043,0.232c0,0.059,0.008,0.117,0.012,0.219
		c0.006,0.107,0.076,0.215,0.173,0.287c0.823,0.867,1.216,2.059,1.216,3.254C286.818,33.29,286.803,33.53,286.771,33.767z"/>
	<path fill="#AD9840" d="M285.531,28.757c0.006,0,0.015,0,0.021,0c0.14,0.023,0.14,0.037,0.191,0.045
		c-0.141-0.125-0.549-0.404-0.762-0.508c-1.922,0.354-3.1,1.492-3.592,3.143c-0.005,0.023-0.008,0.041-0.008,0.057
		c0,0.059,0.032,0.082,0.054,0.16c0.124,0.273,0.232,0.414,0.367,0.588c0.06,0.053,0.093,0.078,0.15,0.078
		c0.026,0,0.057-0.006,0.095-0.016c0.318-0.104,0.498-0.188,0.77-0.381c0.092-0.086,0.12-0.088,0.133-0.209
		c0-0.252,0-0.545,0.072-0.83c0.032-0.172,0.141-0.215,0.251-0.252c0.177-0.047,0.343-0.055,0.512-0.055
		c0.093,0,0.185,0.002,0.281,0.002c0.114-0.006,0.208-0.057,0.26-0.205c0.222-0.268,0.449-0.475,0.814-0.729
		c0.085-0.02,0.108-0.078,0.108-0.154c0-0.018-0.001-0.037-0.004-0.059c0.001-0.025,0.001-0.049,0.001-0.074
		c0-0.031,0-0.062,0-0.096c0-0.105,0.006-0.207,0.058-0.336C285.312,28.866,285.406,28.757,285.531,28.757z"/>
</g>
<path fill="#5C15CC" d="M283,26.806c-0.716,0-1.396,0.149-2.017,0.415l-2.704,2.704c-0.267,0.621-0.416,1.303-0.416,2.02
	c0,2.745,2.166,4.974,4.876,5.112l5.372-5.372C287.973,28.975,285.744,26.806,283,26.806z"/>
<g>
	<path fill="#5C15CC" d="M276.361,31.944c0-0.036,0.005-0.071,0.006-0.107l-2.816,2.816c0.794,2.776,2.774,5.046,5.361,6.231
		l2.501-2.502C278.518,37.669,276.361,35.057,276.361,31.944z"/>
	<path fill="#5C15CC" d="M285.709,22.495l-2.815,2.816c0.035,0,0.07-0.005,0.106-0.005c3.112,0,5.725,2.157,6.438,5.052l2.5-2.5
		C290.754,25.27,288.485,23.29,285.709,22.495z"/>
</g>
<g>
	
		<rect x="-1.216" y="25.887" transform="matrix(0.7071 0.7071 -0.7071 0.7071 30.0005 -12.4264)" fill="#AD9840" width="62.431" height="8.226"/>
	
		<rect x="25.886" y="25.887" transform="matrix(0.7071 0.7071 -0.7071 0.7071 30.0001 -12.4268)" opacity="0.5" fill="#5C15CC" width="8.228" height="8.226"/>
	<g>
		
			<rect x="28.939" y="13.397" transform="matrix(-0.7071 0.7071 -0.7071 -0.7071 84.9179 -0.1535)" fill="#5C15CC" width="27.103" height="8.226"/>
		
			<rect x="3.958" y="38.377" transform="matrix(0.7071 -0.7071 0.7071 0.7071 -24.9162 24.8253)" fill="#5C15CC" width="27.103" height="8.226"/>
	</g>
</g>
</svg>
