<?xml version="1.0" encoding="utf-8"?>
<!-- Generator: Adobe Illustrator 15.0.0, SVG Export Plug-In . SVG Version: 6.00 Build 0)  -->
<!DOCTYPE svg PUBLIC "-//W3C//DTD SVG 1.1//EN" "http://www.w3.org/Graphics/SVG/1.1/DTD/svg11.dtd">
<svg version="1.1" id="Layer_1" xmlns="http://www.w3.org/2000/svg" xmlns:xlink="http://www.w3.org/1999/xlink" x="0px" y="0px"
	 width="80px" height="80px" viewBox="0 0 80 80" enable-background="new 0 0 80 80" xml:space="preserve">
<path fill="#0A0A0A" d="M40,4.666C20.482,4.666,4.666,20.487,4.666,40c0,19.518,15.816,35.334,35.334,35.334
	c19.513,0,35.334-15.816,35.334-35.334C75.334,20.487,59.513,4.666,40,4.666z M47.566,40.017h-4.95c0,7.908,0,17.65,0,17.65h-7.338
	c0,0,0-9.645,0-17.65h-3.49v-6.242h3.49v-4.032c0-2.894,1.373-7.409,7.403-7.409l5.438,0.022v6.057c0,0-3.306,0-3.946,0
	c-0.646,0-1.558,0.32-1.558,1.698v3.664h5.596L47.566,40.017z"/>
<path fill="#0A0A0A" d="M-75.002,44.666c-19.513,0-35.334,15.82-35.334,35.333c0,19.518,15.821,35.334,35.334,35.334
	c19.512,0,35.334-15.816,35.334-35.334C-39.668,60.486-55.49,44.666-75.002,44.666z M-60.95,72.797
	c0.016,0.31,0.022,0.619,0.022,0.933c0,9.581-7.295,20.631-20.625,20.631c-4.098,0-7.908-1.199-11.116-3.256
	c0.57,0.064,1.145,0.098,1.731,0.098c3.397,0,6.519-1.156,8.999-3.1c-3.17-0.064-5.846-2.16-6.769-5.037
	c0.44,0.081,0.896,0.13,1.362,0.13c0.663,0,1.303-0.091,1.911-0.255c-3.316-0.667-5.813-3.598-5.813-7.11c0-0.026,0-0.059,0-0.086
	c0.977,0.542,2.095,0.868,3.284,0.906c-1.948-1.303-3.224-3.522-3.224-6.036c0-1.329,0.358-2.578,0.977-3.646
	c3.577,4.391,8.918,7.272,14.942,7.577c-0.12-0.532-0.185-1.086-0.185-1.656c0-4,3.246-7.245,7.251-7.245
	c2.079,0,3.968,0.885,5.287,2.29c1.65-0.326,3.203-0.928,4.608-1.764c-0.548,1.699-1.693,3.115-3.191,4.011
	c1.465-0.169,2.865-0.564,4.163-1.135C-58.307,70.496-59.534,71.776-60.95,72.797z"/>
<g>
	<path fill="#0A0A0A" d="M166.77,67.28c0.276,0,0.488-0.069,0.651-0.222s0.244-0.364,0.244-0.624v-5.368
		c0-0.212-0.081-0.385-0.25-0.521c-0.162-0.135-0.374-0.195-0.646-0.195c-0.244,0-0.445,0.061-0.597,0.195
		c-0.152,0.137-0.229,0.31-0.229,0.521v5.368c0,0.271,0.071,0.478,0.212,0.624C166.303,67.216,166.504,67.28,166.77,67.28z"/>
	<path fill="#0A0A0A" d="M171.215,77.197c-0.277,0-0.554,0.065-0.825,0.206c-0.271,0.146-0.526,0.358-0.766,0.624v-3.901h-1.807
		v12.125h1.807v-0.689c0.228,0.276,0.489,0.477,0.766,0.602c0.271,0.137,0.581,0.196,0.933,0.196c0.527,0,0.935-0.163,1.211-0.505
		c0.282-0.342,0.424-0.825,0.424-1.454v-4.961c0-0.733-0.146-1.292-0.445-1.678C172.214,77.388,171.778,77.197,171.215,77.197z
		 M171.116,84.15c0,0.292-0.054,0.493-0.157,0.618c-0.103,0.13-0.26,0.195-0.482,0.195c-0.152,0-0.294-0.038-0.429-0.103
		c-0.142-0.06-0.282-0.169-0.424-0.315v-5.568c0.12-0.125,0.239-0.217,0.364-0.277c0.13-0.054,0.255-0.086,0.38-0.086
		c0.244,0,0.429,0.075,0.559,0.232c0.125,0.158,0.189,0.386,0.189,0.689V84.15z"/>
	<polygon fill="#0A0A0A" points="154.4,75.889 156.484,75.889 156.484,86.251 158.498,86.251 158.498,75.889 160.582,75.889 
		160.582,74.126 154.4,74.126 	"/>
	<path fill="#0A0A0A" d="M164.685,84.096c-0.167,0.195-0.353,0.354-0.554,0.483c-0.2,0.125-0.368,0.185-0.498,0.185
		c-0.169,0-0.294-0.044-0.37-0.142c-0.07-0.097-0.107-0.244-0.107-0.456V77.3h-1.786v7.48c0,0.537,0.103,0.927,0.309,1.199
		c0.213,0.271,0.521,0.396,0.939,0.396c0.331,0,0.679-0.088,1.036-0.282c0.359-0.19,0.701-0.468,1.031-0.831v0.988h1.786V77.3
		h-1.786V84.096z"/>
	<path fill="#0A0A0A" d="M167.084,37.332c-19.512,0-35.333,15.821-35.333,35.333c0,19.518,15.821,35.334,35.333,35.334
		c19.513,0,35.334-15.816,35.334-35.334C202.418,53.152,186.597,37.332,167.084,37.332z M171.345,58.891h2.009v7.549
		c0,0.233,0.049,0.402,0.13,0.505c0.081,0.108,0.223,0.162,0.412,0.162c0.147,0,0.337-0.069,0.56-0.206
		c0.228-0.146,0.434-0.314,0.619-0.531v-7.479h2.019v9.851h-2.019V67.65c-0.37,0.401-0.755,0.711-1.156,0.917
		c-0.402,0.206-0.787,0.32-1.167,0.32c-0.468,0-0.814-0.152-1.054-0.45c-0.233-0.288-0.353-0.728-0.353-1.314V58.891z
		 M163.871,61.143c0-0.766,0.271-1.373,0.813-1.823c0.537-0.451,1.271-0.674,2.188-0.674c0.829,0,1.508,0.233,2.045,0.711
		c0.527,0.473,0.793,1.097,0.793,1.84v5.092c0,0.847-0.255,1.497-0.776,1.98c-0.526,0.483-1.242,0.723-2.159,0.723
		c-0.88,0-1.586-0.25-2.112-0.744c-0.526-0.499-0.792-1.161-0.792-1.997V61.143z M158.389,55.389l1.472,5.336h0.141l1.406-5.336
		h2.302l-2.639,7.816v5.536h-2.263v-5.292l-2.698-8.061H158.389z M184.751,83.493c0,3.561-2.893,6.454-6.453,6.454h-22.427
		c-3.566,0-6.454-2.894-6.454-6.454v-5.188c0-3.566,2.888-6.459,6.454-6.459h22.427c3.561,0,6.453,2.893,6.453,6.459V83.493z"/>
	<path fill="#0A0A0A" d="M176.609,77.084c-0.798,0-1.449,0.238-1.954,0.727c-0.51,0.489-0.76,1.129-0.76,1.899v4.017
		c0,0.863,0.233,1.536,0.689,2.024c0.456,0.5,1.091,0.738,1.889,0.738c0.891,0,1.563-0.229,2.008-0.689
		c0.451-0.467,0.674-1.156,0.674-2.073v-0.461h-1.84v0.407c0,0.526-0.06,0.868-0.174,1.02c-0.119,0.157-0.326,0.233-0.624,0.233
		c-0.288,0-0.489-0.087-0.607-0.271c-0.115-0.186-0.174-0.511-0.174-0.982v-1.684h3.419V79.71c0-0.852-0.218-1.498-0.657-1.948
		C178.059,77.306,177.43,77.084,176.609,77.084z M177.315,80.601h-1.579v-0.906c0-0.375,0.059-0.646,0.184-0.799
		c0.125-0.167,0.331-0.249,0.613-0.249c0.271,0,0.473,0.082,0.598,0.249c0.12,0.152,0.185,0.424,0.185,0.799V80.601z"/>
</g>
</svg>
