<?xml version="1.0" encoding="utf-8"?>
<!-- Generator: Adobe Illustrator 15.0.0, SVG Export Plug-In . SVG Version: 6.00 Build 0)  -->
<!DOCTYPE svg PUBLIC "-//W3C//DTD SVG 1.1//EN" "http://www.w3.org/Graphics/SVG/1.1/DTD/svg11.dtd">
<svg version="1.1" id="Layer_1" xmlns="http://www.w3.org/2000/svg" xmlns:xlink="http://www.w3.org/1999/xlink" x="0px" y="0px"
	 width="60px" height="60px" viewBox="0 0 60 60" enable-background="new 0 0 60 60" xml:space="preserve">
<g>
	<path fill="#AD9840" d="M279.973,30.823c-0.02,0.053-0.039,0.104-0.039,0.146c0,0.027,0.008,0.055,0.029,0.078
		c0.18,0.186,0.521,0.297,1.104,0.406c0.015,0,0.025,0,0.039,0c0.08,0,0.137-0.021,0.182-0.131c0.466-1.57,1.602-2.756,3.482-3.143
		c-0.66-0.277-1.1-0.367-1.771-0.4C281.498,28.415,280.334,29.53,279.973,30.823z"/>
	<path fill="#AD9840" d="M279.084,30.634c-0.027,0.08-0.064,0.15-0.078,0.23c0.006,0.149,0.02,0.215,0.032,0.334
		c0.044,0.071,0.096,0.094,0.188,0.096c0.012,0,0.023-0.002,0.037-0.002c0.211-0.045,0.229-0.088,0.404-0.199
		c0.089-0.063,0.146-0.172,0.159-0.295c0.403-1.373,1.526-2.449,2.844-3.006C281.08,27.95,279.686,28.962,279.084,30.634z"/>
	<path fill="#AD9840" d="M282.246,33.766c0.363,0,0.736-0.045,1.111-0.132c0.103-0.032,0.094-0.075,0.166-0.147
		c0.175-0.244,0.244-0.406,0.322-0.613c0.01-0.037,0.016-0.066,0.014-0.092c0-0.049-0.019-0.086-0.076-0.154
		c-0.246-0.219-0.413-0.336-0.717-0.477c-0.068-0.021-0.103-0.035-0.142-0.035l0,0c-0.028,0-0.059,0.006-0.104,0.027
		c-0.221,0.123-0.475,0.268-0.754,0.352c-0.043,0.014-0.08,0.018-0.113,0.018c-0.102,0-0.168-0.053-0.23-0.111
		c-0.203-0.2-0.307-0.424-0.441-0.661c-0.049-0.08-0.127-0.134-0.235-0.134c-0.021,0-0.044,0.002-0.069,0.009
		c-0.345-0.054-0.638-0.15-1.035-0.341c-0.034-0.034-0.066-0.049-0.101-0.049h-0.002c-0.043,0-0.09,0.025-0.142,0.062
		c-0.155,0.078-0.26,0.168-0.463,0.201c-0.014,0.006-0.028,0.01-0.049,0.01c-0.072,0-0.178-0.043-0.219-0.143
		c-0.053-0.131-0.037-0.138-0.062-0.189c-0.03,0.154-0.063,0.521-0.063,0.781c0,0.053,0.001,0.102,0.003,0.139
		C279.826,33.232,280.99,33.766,282.246,33.766z"/>
	<g>
		<path fill="#AD9840" d="M283.361,33.777c-0.016,0-0.033,0.002-0.051,0.005c-0.371,0.09-0.742,0.135-1.109,0.135
			c-1.208,0-2.375-0.494-3.348-1.597c0.084,0.709,0.227,1.14,0.532,1.734c1.013,0.773,2.179,1.221,3.261,1.221l0,0
			c0.302,0,0.598-0.034,0.881-0.108c0.1-0.019,0.18-0.024,0.201-0.104c0.019-0.062,0.026-0.131,0.026-0.209
			c0-0.229-0.075-0.533-0.221-0.944C283.49,33.825,283.454,33.779,283.361,33.777z"/>
		<path fill="#AD9840" d="M279.382,34.062L279.382,34.062L279.382,34.062z"/>
	</g>
	<path fill="#AD9840" d="M283.922,35.298c-0.046-0.021-0.097-0.032-0.148-0.032c-0.063,0-0.129,0.016-0.189,0.041
		c-0.316,0.075-0.639,0.11-0.96,0.11c-1.095,0-2.187-0.414-3.063-1.082c0.781,1.099,2.022,1.772,3.44,1.772
		c0.265,0,0.533-0.022,0.808-0.071c0.086-0.019,0.162-0.019,0.243-0.052c0.123-0.084,0.175-0.123,0.271-0.19
		c0.02-0.033,0.029-0.062,0.029-0.09c0-0.047-0.022-0.097-0.062-0.154C284.146,35.389,284.098,35.396,283.922,35.298z"/>
	<path fill="#AD9840" d="M285.496,33.796c0-1.125-0.438-2.125-1.227-2.971c-0.082-0.068-0.111-0.043-0.211-0.068
		c-0.098-0.01-0.183-0.014-0.259-0.014c-0.161,0-0.29,0.016-0.438,0.036c-0.108,0.033-0.137,0.056-0.176,0.185
		c-0.049,0.222-0.074,0.388-0.074,0.574c0,0.086,0.006,0.176,0.016,0.276c0.025,0.125,0.02,0.146,0.113,0.226
		c0.221,0.123,0.474,0.271,0.683,0.474c0.084,0.077,0.109,0.153,0.109,0.225c0,0.041-0.009,0.08-0.017,0.121
		c-0.078,0.279-0.217,0.479-0.352,0.713c-0.025,0.043-0.039,0.09-0.039,0.139c0,0.061,0.023,0.127,0.078,0.193
		c0.123,0.324,0.188,0.623,0.227,1.066c-0.005,0.02-0.008,0.036-0.008,0.051c0,0.071,0.055,0.108,0.141,0.147
		c0.148,0.097,0.279,0.138,0.41,0.306c0.03,0.022,0.06,0.092,0.06,0.164c0,0.043-0.011,0.09-0.038,0.133
		c-0.089,0.112-0.104,0.102-0.139,0.149c0.178-0.062,0.623-0.276,0.824-0.41C285.395,34.911,285.496,34.341,285.496,33.796z"/>
	<g>
		<path fill="#AD9840" d="M286.621,34.052c0.036-0.288,0.055-0.573,0.055-0.854c0-1.299-0.391-2.494-1.162-3.285
			c-0.058-0.062-0.104-0.125-0.166-0.125h-0.002c-0.008,0-0.018,0.002-0.025,0.004c-0.25,0.059-0.521,0.303-0.902,0.748
			c-0.032,0.047-0.053,0.086-0.053,0.131c0,0.037,0.015,0.078,0.052,0.127c0.783,0.828,1.242,1.846,1.242,3.004
			c0,0.504-0.089,1.035-0.273,1.588C285.955,34.956,286.256,34.622,286.621,34.052z"/>
		<path fill="#AD9840" d="M286.627,34.055L286.627,34.055L286.627,34.055z"/>
	</g>
	<path fill="#AD9840" d="M286.771,33.768c0.256-0.562,0.389-1.162,0.389-1.765c0-0.963-0.336-1.93-1.037-2.766
		c-0.059-0.066-0.098-0.131-0.16-0.188c-0.135-0.07-0.199-0.09-0.309-0.135c-0.004,0-0.01,0-0.016,0
		c-0.084,0-0.13,0.047-0.179,0.145c-0.032,0.107-0.043,0.17-0.043,0.232c0,0.059,0.008,0.117,0.013,0.219
		c0.006,0.107,0.075,0.215,0.172,0.287c0.823,0.867,1.217,2.059,1.217,3.254C286.818,33.29,286.803,33.529,286.771,33.768z"/>
	<path fill="#AD9840" d="M285.531,28.757c0.006,0,0.015,0,0.021,0c0.14,0.023,0.14,0.037,0.191,0.045
		c-0.142-0.125-0.55-0.404-0.763-0.508c-1.922,0.354-3.1,1.492-3.592,3.144c-0.005,0.022-0.008,0.041-0.008,0.057
		c0,0.059,0.032,0.082,0.055,0.16c0.123,0.272,0.231,0.414,0.366,0.588c0.06,0.053,0.093,0.078,0.15,0.078
		c0.026,0,0.057-0.006,0.095-0.016c0.318-0.104,0.498-0.188,0.77-0.382c0.093-0.086,0.121-0.088,0.134-0.209
		c0-0.252,0-0.545,0.071-0.83c0.033-0.172,0.142-0.215,0.252-0.252c0.177-0.047,0.343-0.055,0.512-0.055
		c0.093,0,0.185,0.002,0.281,0.002c0.113-0.006,0.207-0.058,0.26-0.205c0.222-0.268,0.449-0.475,0.814-0.729
		c0.084-0.02,0.107-0.078,0.107-0.154c0-0.018-0.001-0.037-0.004-0.059c0.001-0.025,0.001-0.049,0.001-0.074
		c0-0.031,0-0.062,0-0.096c0-0.105,0.006-0.207,0.058-0.336C285.312,28.866,285.406,28.757,285.531,28.757z"/>
</g>
<path fill="#5C15CC" d="M283,26.806c-0.716,0-1.396,0.149-2.018,0.415l-2.703,2.704c-0.268,0.621-0.416,1.304-0.416,2.021
	c0,2.744,2.166,4.974,4.876,5.111l5.372-5.371C287.973,28.975,285.744,26.806,283,26.806z"/>
<g>
	<path fill="#5C15CC" d="M276.361,31.943c0-0.035,0.005-0.07,0.006-0.106l-2.816,2.815c0.795,2.777,2.774,5.047,5.361,6.231
		l2.501-2.502C278.518,37.669,276.361,35.057,276.361,31.943z"/>
	<path fill="#5C15CC" d="M285.709,22.495l-2.814,2.816c0.035,0,0.069-0.005,0.105-0.005c3.111,0,5.725,2.157,6.438,5.052l2.5-2.5
		C290.754,25.27,288.484,23.29,285.709,22.495z"/>
</g>
<g>
	<path fill="#FFFFFF" d="M60,3.895H0V14.62h60V3.895L60,3.895z"/>
	<path fill="#FFFFFF" d="M60,24.637H0v10.726h60V24.637L60,24.637z"/>
	<path fill="#FFFFFF" d="M60,45.38H0v10.726h60V45.38L60,45.38z"/>
</g>
</svg>
