<?xml version="1.0" encoding="utf-8"?>
<!-- Generator: Adobe Illustrator 15.0.0, SVG Export Plug-In . SVG Version: 6.00 Build 0)  -->
<!DOCTYPE svg PUBLIC "-//W3C//DTD SVG 1.1//EN" "http://www.w3.org/Graphics/SVG/1.1/DTD/svg11.dtd">
<svg version="1.1" id="Layer_1" xmlns="http://www.w3.org/2000/svg" xmlns:xlink="http://www.w3.org/1999/xlink" x="0px" y="0px"
	 width="200px" height="72.353px" viewBox="0 0 200 72.353" enable-background="new 0 0 200 72.353" xml:space="preserve">
<g>
	<polygon fill="#F4F5F6" points="133.625,34.021 138.437,37.585 156.972,34.021 138.437,30.456 	"/>
	<circle fill="#F4F5F6" cx="128.812" cy="34.021" r="2.139"/>
	<polyline fill="#F4F5F6" points="63.927,27.796 72.409,34.021 63.927,40.245 43.029,40.198 50.943,34.021 43.029,27.843 	"/>
	<g>
		<g>
			<path fill-rule="evenodd" clip-rule="evenodd" fill="#F5F6F7" d="M91.566,21.165c-0.128-0.028-0.3-0.098-0.387-0.141
				c-0.684-0.333-1.189-1.014-1.617-1.599c-0.311-0.424-0.586-0.845-0.914-1.212c-0.664-0.745-1.658-1.227-2.195-2.073
				c-0.525-0.828-0.871-2.01-1.354-2.917c-0.264-0.497-0.515-0.956-0.473-1.633c0.05-0.819,0.317-1.54,0.544-2.162
				c0.262-0.717,0.64-1.13,1.106-1.616c0.871-0.907,1.744-1.845,2.057-3.356c-0.165,0.045-0.289,0.263-0.387,0.404
				c-0.718,1.049-1.22,2.056-2.284,2.758c-0.154,0.103-0.428,0.26-0.614,0.229c-0.313-0.052-0.438-0.779-0.546-1.125
				c-0.133-0.431-0.273-0.916-0.298-1.371c-0.032-0.59,0.096-1.081,0.245-1.458c0.126-0.317,0.337-0.589,0.369-0.949
				c-0.011,0-0.023,0-0.035,0c-0.301,0.218-0.521,0.652-0.721,1.072c-0.187,0.395-0.354,0.826-0.386,1.299
				c-0.038,0.578,0.08,1.123,0.211,1.652c0.128,0.514,0.352,1.039,0.352,1.546c0,0.456-0.115,0.845-0.229,1.282
				c-0.091,0.351-0.23,0.947-0.562,0.949c-0.211,0-0.429-0.321-0.545-0.422c-0.188-0.162-0.367-0.34-0.422-0.562
				c-0.104-0.426,0.171-0.995,0.265-1.494c0.045-0.243,0.083-0.496,0.087-0.738c0.005-0.226,0.031-0.53-0.175-0.686
				c-0.152,0.188-0.125,0.472-0.159,0.738c-0.032,0.255-0.081,0.524-0.157,0.755c-0.099,0.296-0.407,1.037-0.721,1.107
				c-0.284,0.064-0.691-0.195-0.914-0.334c-0.277-0.174-0.493-0.365-0.649-0.632c-0.227-0.387-0.276-0.956-0.51-1.335
				c-0.101,0.977,0.229,1.938,0.791,2.424c0.262,0.227,0.614,0.389,0.93,0.562c0.963,0.526,1.777,1.228,2.354,2.144
				c0.373,0.591,0.707,1.241,1.056,1.933c0.156,0.311,0.312,0.644,0.456,1.036c0.098,0.263,0.373,0.871,0.264,1.212
				c-0.126,0.395-1.05,0.393-1.616,0.369c-1.685-0.071-2.588-0.783-3.285-1.774c-0.137-0.194-0.233-0.433-0.439-0.581
				c-0.008,0.484,0.228,0.894,0.439,1.248c0.649,1.092,1.652,1.801,3.144,2.02c0.518,0.077,1.046,0.048,1.582,0.036
				c1.093-0.027,1.727,0.559,2.39,1.054c0.266,0.198,0.841,0.532,0.826,0.895c-0.01,0.214-0.268,0.395-0.439,0.528
				c-0.529,0.406-1.263,0.846-2.021,0.914c-1.049,0.093-1.721-0.272-2.213-0.703c-0.166-0.146-0.338-0.336-0.579-0.37
				c0.2,0.475,0.499,0.764,0.807,1.02c0.328,0.271,0.703,0.502,1.195,0.632c0.816,0.216,1.733,0.072,2.284-0.246
				c0.189-0.11,0.336-0.273,0.545-0.369c0.554-0.254,1.36-0.069,1.792,0.159c0.264,0.139,0.604,0.549,0.58,0.931
				c-0.019,0.309-0.265,0.662-0.422,0.878c-0.103,0.14-0.224,0.281-0.367,0.389v0.986c0.016-0.001,0.033-0.002,0.051-0.004
				c0.605-0.066,0.864-0.568,1.072-1.072c0.116-0.285,0.298-0.769,0.508-0.861c0.146-0.064,0.307-0.04,0.422-0.106
				c0.136-0.077,0.251-0.289,0.317-0.492c0.066-0.208,0.163-0.555,0.034-0.685C91.93,21.178,91.693,21.193,91.566,21.165z"/>
			<path fill-rule="evenodd" clip-rule="evenodd" fill="#F5F6F7" d="M108.437,21.165c0.126-0.028,0.298-0.098,0.387-0.141
				c0.682-0.333,1.188-1.014,1.615-1.599c0.312-0.424,0.587-0.845,0.914-1.212c0.666-0.745,1.658-1.227,2.195-2.073
				c0.525-0.828,0.871-2.01,1.354-2.917c0.265-0.497,0.518-0.956,0.475-1.633c-0.051-0.819-0.318-1.54-0.545-2.162
				c-0.26-0.717-0.641-1.13-1.107-1.616c-0.87-0.907-1.742-1.845-2.056-3.356c0.165,0.045,0.29,0.263,0.387,0.404
				c0.718,1.049,1.22,2.056,2.284,2.758c0.156,0.103,0.428,0.26,0.615,0.229c0.312-0.052,0.438-0.779,0.545-1.125
				c0.133-0.431,0.273-0.916,0.298-1.371c0.032-0.59-0.097-1.081-0.245-1.458c-0.127-0.317-0.336-0.589-0.369-0.949
				c0.012,0,0.023,0,0.035,0c0.301,0.218,0.521,0.652,0.721,1.072c0.187,0.395,0.354,0.826,0.386,1.299
				c0.04,0.578-0.08,1.123-0.21,1.652c-0.127,0.514-0.352,1.039-0.352,1.546c0,0.456,0.114,0.845,0.229,1.282
				c0.09,0.351,0.23,0.947,0.561,0.949c0.212,0,0.43-0.321,0.546-0.422c0.188-0.162,0.367-0.34,0.421-0.562
				c0.104-0.426-0.169-0.995-0.262-1.494c-0.047-0.243-0.085-0.496-0.089-0.738c-0.004-0.226-0.031-0.53,0.175-0.686
				c0.153,0.188,0.125,0.472,0.158,0.738c0.033,0.255,0.082,0.524,0.159,0.755c0.098,0.296,0.405,1.037,0.72,1.107
				c0.284,0.064,0.692-0.195,0.914-0.334c0.279-0.174,0.493-0.365,0.648-0.632c0.229-0.387,0.277-0.956,0.511-1.335
				c0.101,0.977-0.229,1.938-0.791,2.424c-0.262,0.227-0.614,0.389-0.931,0.562c-0.963,0.526-1.776,1.228-2.354,2.144
				c-0.373,0.591-0.707,1.241-1.055,1.933c-0.156,0.311-0.312,0.644-0.457,1.036c-0.098,0.263-0.373,0.871-0.264,1.212
				c0.125,0.395,1.049,0.393,1.616,0.369c1.685-0.071,2.587-0.783,3.286-1.774c0.136-0.194,0.233-0.433,0.438-0.581
				c0.009,0.484-0.228,0.894-0.438,1.248c-0.65,1.092-1.652,1.801-3.146,2.02c-0.517,0.077-1.046,0.048-1.581,0.036
				c-1.094-0.027-1.727,0.559-2.391,1.054c-0.264,0.198-0.839,0.532-0.825,0.895c0.009,0.214,0.267,0.395,0.439,0.528
				c0.528,0.406,1.263,0.846,2.021,0.914c1.05,0.093,1.721-0.272,2.214-0.703c0.167-0.146,0.337-0.336,0.581-0.37
				c-0.203,0.475-0.501,0.764-0.809,1.02c-0.328,0.271-0.703,0.502-1.195,0.632c-0.816,0.216-1.733,0.072-2.284-0.246
				c-0.19-0.11-0.335-0.273-0.545-0.369c-0.554-0.254-1.36-0.069-1.792,0.159c-0.264,0.139-0.602,0.549-0.579,0.931
				c0.018,0.309,0.263,0.662,0.421,0.878c0.103,0.14,0.224,0.281,0.367,0.389v0.986c-0.016-0.001-0.033-0.002-0.051-0.004
				c-0.604-0.066-0.865-0.568-1.07-1.072c-0.119-0.285-0.301-0.769-0.511-0.861c-0.146-0.064-0.306-0.04-0.421-0.106
				c-0.137-0.077-0.252-0.289-0.316-0.492c-0.068-0.208-0.164-0.555-0.035-0.685C108.07,21.178,108.308,21.193,108.437,21.165z"/>
		</g>
		<g>
			<path fill-rule="evenodd" clip-rule="evenodd" fill="#F5F6F7" d="M114.279,31.582c-0.023-0.554-0.092-1.104-0.199-1.646
				c-0.215-1.08-0.594-2.123-1.111-3.091c-0.52-0.968-1.182-1.863-1.977-2.639c-0.793-0.774-1.723-1.429-2.752-1.894
				c-1.027-0.467-2.152-0.739-3.282-0.788c-1.131-0.05-2.257,0.117-3.308,0.444c-0.573,0.177-1.121,0.401-1.649,0.657
				c-0.528-0.256-1.077-0.48-1.648-0.657c-1.052-0.327-2.178-0.495-3.308-0.444c-1.13,0.049-2.256,0.321-3.283,0.788
				c-1.028,0.465-1.959,1.12-2.752,1.894c-0.794,0.776-1.457,1.671-1.977,2.639c-0.519,0.968-0.896,2.011-1.112,3.091
				c-0.107,0.542-0.175,1.091-0.198,1.646c-0.011,0.276-0.011,0.555,0,0.833c0.011,0.269,0.03,0.534,0.055,0.801
				c0.102,1.064,0.322,2.122,0.66,3.14c0.338,1.019,0.791,1.997,1.34,2.911c0.549,0.916,1.192,1.768,1.902,2.548
				c0.709,0.782,1.486,1.494,2.307,2.139c0.82,0.645,1.685,1.224,2.577,1.746c0.891,0.522,1.811,0.986,2.748,1.401
				c0.883,0.392,1.78,0.738,2.689,1.048c0.908-0.311,1.807-0.657,2.689-1.048c0.938-0.415,1.856-0.879,2.749-1.401
				c0.891-0.522,1.756-1.102,2.576-1.746c0.82-0.645,1.598-1.356,2.307-2.139c0.711-0.781,1.354-1.633,1.902-2.548
				c0.549-0.914,1.002-1.892,1.34-2.911c0.338-1.018,0.559-2.075,0.66-3.14c0.025-0.267,0.043-0.532,0.056-0.801
				C114.289,32.137,114.291,31.858,114.279,31.582z"/>
		</g>
		<path fill="#40FFAD" d="M91.65,37.886c-1.063,0-1.607-0.132-2.172-0.294c0.088,0.166,0.181,0.328,0.276,0.489
			c0.309,0.515,0.654,1.007,1.031,1.479c0.259,0.019,0.544,0.031,0.864,0.031c1.41,0,2.156-0.218,2.815-0.411
			c0.628-0.183,1.172-0.342,2.337-0.342c0.202,0,0.384,0.006,0.552,0.015c-0.136-0.077-0.27-0.158-0.398-0.245l-0.024-0.016
			l-0.011,0.015c-0.026-0.018-0.052-0.035-0.079-0.054l0.013-0.016c-0.285-0.202-0.55-0.433-0.79-0.686l-0.021-0.021l-0.013,0.014
			c-0.022-0.023-0.044-0.047-0.065-0.07l0.015-0.014c-0.158-0.175-0.304-0.36-0.438-0.555c-0.661,0.08-1.128,0.215-1.555,0.341
			C93.36,37.728,92.816,37.886,91.65,37.886z"/>
		<path fill="#40FFAD" d="M104.292,37.544c-0.047,0.013-0.096,0.027-0.144,0.041c-0.199,0.241-0.419,0.465-0.657,0.667l-0.022,0.019
			l0.013,0.015c-0.024,0.021-0.049,0.041-0.073,0.061l-0.013-0.015c-0.271,0.22-0.563,0.414-0.872,0.578l-0.025,0.013l0.01,0.018
			c-0.028,0.014-0.058,0.029-0.086,0.044l-0.008-0.018c-0.312,0.156-0.641,0.283-0.977,0.376l-0.028,0.008l0.005,0.019
			c-0.031,0.008-0.062,0.017-0.092,0.024l-0.006-0.019c-0.241,0.061-0.488,0.104-0.736,0.131c0.381,0.051,0.827,0.085,1.375,0.085
			c1.411,0,2.157-0.218,2.816-0.411c0.628-0.183,1.17-0.342,2.337-0.342c1.166,0,1.71,0.159,2.338,0.342
			c0.017,0.006,0.034,0.01,0.051,0.015c0.268-0.359,0.52-0.731,0.748-1.114c0.076-0.127,0.15-0.257,0.223-0.387
			c-0.186-0.045-0.361-0.096-0.544-0.149c-0.657-0.193-1.405-0.411-2.815-0.411C105.7,37.133,104.952,37.352,104.292,37.544z"/>
		<path fill="#40FFAD" d="M104.292,29.4c-0.386,0.114-0.741,0.217-1.231,0.279c0.149,0.103,0.293,0.213,0.431,0.33l0.022,0.019
			l0.013-0.015c0.024,0.021,0.049,0.042,0.071,0.064l-0.012,0.014c0.261,0.232,0.498,0.489,0.709,0.767l0.02,0.023l0.015-0.011
			c0.019,0.024,0.038,0.05,0.057,0.076l-0.016,0.012c0.039,0.053,0.074,0.107,0.112,0.162c0.099-0.028,0.193-0.056,0.289-0.083
			c0.628-0.184,1.17-0.342,2.337-0.342c1.166,0,1.71,0.159,2.338,0.342c0.609,0.178,1.295,0.377,2.512,0.406
			c-0.023-0.353-0.071-0.705-0.141-1.053c-0.045-0.223-0.098-0.444-0.16-0.664c-0.771-0.045-1.225-0.177-1.733-0.325
			c-0.657-0.193-1.405-0.411-2.815-0.411C105.7,28.989,104.952,29.207,104.292,29.4z"/>
		<path fill="#40FFAD" d="M91.65,29.741c-1.167,0-1.709-0.158-2.337-0.341c-0.244-0.071-0.501-0.146-0.798-0.212
			c-0.14,0.393-0.251,0.794-0.332,1.201c-0.03,0.15-0.055,0.302-0.076,0.454c0.256,0.056,0.485,0.123,0.729,0.193
			c0.657,0.193,1.405,0.41,2.814,0.41c1.41,0,2.156-0.217,2.815-0.41c0.407-0.119,0.779-0.228,1.308-0.289
			c0.094-0.116,0.189-0.229,0.291-0.336l0.021-0.021l-0.014-0.014c0.021-0.023,0.044-0.046,0.066-0.069l0.014,0.013
			c0.246-0.247,0.516-0.472,0.805-0.667l0.024-0.017l-0.011-0.016c0.026-0.018,0.053-0.035,0.08-0.053l0.011,0.016
			c0.293-0.19,0.604-0.351,0.929-0.48l0.027-0.011l-0.007-0.018c0.015-0.006,0.031-0.012,0.046-0.018
			c-0.354-0.043-0.762-0.069-1.253-0.069c-1.409,0-2.156,0.218-2.814,0.411C93.36,29.583,92.816,29.741,91.65,29.741z"/>
		<g>
			<g>
				<path fill="#080808" d="M98.205,33.469c-0.013,0.032-0.023,0.062-0.023,0.086c0,0.017,0.006,0.033,0.018,0.048
					c0.107,0.11,0.31,0.175,0.655,0.24c0.007,0.001,0.015,0.001,0.021,0.001c0.049,0,0.082-0.013,0.109-0.079
					c0.274-0.932,0.949-1.634,2.065-1.865c-0.393-0.165-0.651-0.217-1.05-0.236C99.109,32.041,98.418,32.702,98.205,33.469z"/>
				<path fill="#080808" d="M97.677,33.357c-0.016,0.046-0.038,0.088-0.045,0.136c0.003,0.089,0.011,0.127,0.018,0.198
					c0.027,0.042,0.057,0.055,0.112,0.056c0.007,0,0.015-0.001,0.021-0.001c0.127-0.027,0.136-0.052,0.24-0.119
					c0.053-0.037,0.087-0.102,0.095-0.174c0.24-0.815,0.905-1.453,1.688-1.783C98.863,31.765,98.035,32.365,97.677,33.357z"/>
				<path fill="#080808" d="M99.552,35.214c0.216,0,0.438-0.027,0.661-0.079c0.06-0.019,0.056-0.043,0.099-0.087
					c0.104-0.146,0.144-0.241,0.19-0.363c0.005-0.023,0.009-0.04,0.009-0.056c0-0.028-0.012-0.051-0.046-0.091
					c-0.146-0.13-0.245-0.199-0.425-0.283c-0.042-0.011-0.062-0.021-0.084-0.021h-0.001c-0.017,0-0.034,0.004-0.062,0.016
					c-0.131,0.073-0.281,0.158-0.447,0.209c-0.025,0.007-0.048,0.011-0.067,0.011c-0.06,0-0.1-0.032-0.136-0.066
					c-0.121-0.119-0.182-0.251-0.264-0.393c-0.028-0.047-0.074-0.079-0.14-0.079c-0.012,0-0.025,0.002-0.042,0.004
					c-0.203-0.031-0.377-0.088-0.613-0.201c-0.02-0.021-0.04-0.029-0.06-0.029l0,0c-0.026,0-0.054,0.015-0.085,0.037
					c-0.093,0.046-0.153,0.101-0.272,0.12c-0.009,0.003-0.02,0.005-0.03,0.005c-0.043,0-0.105-0.025-0.13-0.084
					c-0.031-0.078-0.021-0.082-0.037-0.113c-0.019,0.091-0.038,0.31-0.038,0.462c0,0.032,0,0.061,0.002,0.083
					C98.118,34.899,98.808,35.214,99.552,35.214z"/>
				<g>
					<path fill="#080808" d="M100.214,35.222c-0.008,0-0.019,0.001-0.029,0.003c-0.22,0.051-0.439,0.079-0.658,0.079
						c-0.716,0-1.409-0.292-1.985-0.947c0.05,0.422,0.134,0.677,0.315,1.029c0.602,0.459,1.293,0.723,1.933,0.723h0.002
						c0.179,0,0.354-0.021,0.522-0.062c0.058-0.012,0.105-0.016,0.119-0.062c0.011-0.037,0.016-0.078,0.016-0.124
						c0-0.135-0.044-0.315-0.13-0.561C100.292,35.25,100.27,35.223,100.214,35.222z"/>
					<polygon fill="#080808" points="97.855,35.389 97.855,35.389 97.855,35.389 					"/>
				</g>
				<path fill="#080808" d="M100.546,36.124c-0.026-0.013-0.057-0.019-0.086-0.019c-0.038,0-0.078,0.008-0.114,0.023
					c-0.188,0.044-0.379,0.066-0.569,0.066c-0.648,0-1.297-0.246-1.817-0.642c0.464,0.651,1.2,1.052,2.041,1.052
					c0.155,0,0.315-0.014,0.479-0.043c0.05-0.011,0.097-0.011,0.146-0.03c0.073-0.049,0.103-0.073,0.158-0.114
					c0.013-0.02,0.018-0.037,0.018-0.055c0-0.027-0.012-0.056-0.035-0.089C100.681,36.177,100.651,36.182,100.546,36.124z"/>
				<path fill="#080808" d="M101.481,35.233c0-0.667-0.259-1.261-0.727-1.762c-0.049-0.042-0.066-0.026-0.125-0.042
					c-0.059-0.005-0.108-0.007-0.154-0.007c-0.097,0-0.171,0.009-0.259,0.022c-0.065,0.02-0.082,0.032-0.104,0.108
					c-0.029,0.131-0.044,0.229-0.044,0.34c0,0.051,0.003,0.104,0.009,0.165c0.016,0.075,0.011,0.086,0.067,0.132
					c0.13,0.073,0.28,0.162,0.404,0.282c0.05,0.047,0.065,0.091,0.065,0.133c0,0.023-0.005,0.047-0.01,0.071
					c-0.048,0.166-0.128,0.285-0.209,0.423c-0.015,0.027-0.023,0.054-0.023,0.083c0,0.037,0.016,0.075,0.048,0.114
					c0.072,0.193,0.111,0.37,0.134,0.633c-0.004,0.011-0.005,0.021-0.005,0.03c0,0.042,0.032,0.066,0.084,0.088
					c0.087,0.058,0.165,0.082,0.243,0.182c0.019,0.013,0.035,0.053,0.035,0.096c0,0.026-0.007,0.055-0.023,0.079
					c-0.053,0.066-0.061,0.06-0.081,0.089c0.104-0.038,0.368-0.165,0.488-0.244C101.421,35.894,101.481,35.555,101.481,35.233z"/>
				<g>
					<path fill="#080808" d="M102.149,35.384c0.021-0.171,0.032-0.341,0.032-0.508c0-0.771-0.231-1.479-0.689-1.948
						c-0.033-0.038-0.062-0.074-0.099-0.074h-0.001c-0.004,0-0.01,0.001-0.016,0.002c-0.147,0.035-0.309,0.18-0.535,0.444
						c-0.02,0.027-0.031,0.052-0.031,0.077c0,0.022,0.008,0.046,0.031,0.075c0.464,0.492,0.736,1.096,0.736,1.782
						c0,0.3-0.053,0.614-0.163,0.943C101.754,35.92,101.931,35.721,102.149,35.384z"/>
					<polygon fill="#080808" points="102.153,35.385 102.153,35.385 102.153,35.385 					"/>
				</g>
				<path fill="#080808" d="M102.238,35.215c0.152-0.333,0.23-0.689,0.23-1.047c0-0.57-0.199-1.145-0.615-1.641
					c-0.035-0.039-0.059-0.077-0.095-0.11c-0.08-0.042-0.118-0.054-0.184-0.08c-0.003,0-0.005,0-0.008,0
					c-0.051,0-0.077,0.029-0.105,0.086c-0.021,0.064-0.026,0.101-0.026,0.138c0,0.034,0.004,0.071,0.007,0.129
					c0.003,0.064,0.045,0.129,0.102,0.171c0.49,0.514,0.722,1.221,0.722,1.93C102.265,34.933,102.255,35.074,102.238,35.215z"/>
				<path fill="#080808" d="M101.501,32.243c0.004,0,0.01,0,0.014,0c0.083,0.014,0.083,0.022,0.114,0.026
					c-0.084-0.073-0.327-0.24-0.453-0.301c-1.141,0.211-1.838,0.886-2.13,1.865c-0.004,0.014-0.005,0.024-0.005,0.033
					c0,0.035,0.019,0.048,0.032,0.096c0.072,0.16,0.137,0.244,0.217,0.347c0.035,0.032,0.056,0.046,0.09,0.046
					c0.015,0,0.034-0.002,0.056-0.008c0.188-0.061,0.296-0.111,0.457-0.226c0.055-0.051,0.07-0.052,0.079-0.124
					c0-0.15,0-0.323,0.042-0.492c0.019-0.104,0.084-0.127,0.148-0.151c0.106-0.027,0.204-0.032,0.305-0.032
					c0.054,0,0.109,0.001,0.166,0.001c0.068-0.003,0.124-0.033,0.155-0.122c0.13-0.158,0.266-0.281,0.482-0.432
					c0.05-0.012,0.063-0.046,0.063-0.091c0-0.011,0-0.022-0.001-0.035c0-0.015,0-0.029,0-0.043c0-0.019,0-0.038,0-0.057
					c0-0.062,0.004-0.124,0.034-0.199C101.372,32.308,101.428,32.244,101.501,32.243z"/>
			</g>
			<path fill="#080808" d="M100,31.471c1.472,0,2.663,1.193,2.663,2.664c0,1.47-1.191,2.663-2.663,2.663
				c-1.471,0-2.663-1.192-2.663-2.663C97.337,32.664,98.53,31.471,100,31.471 M100,31.087c-1.681,0-3.048,1.367-3.048,3.047
				c0,1.681,1.367,3.048,3.048,3.048s3.047-1.367,3.047-3.048C103.047,32.454,101.681,31.087,100,31.087L100,31.087z"/>
		</g>
		<path fill="#40FFAD" d="M104.556,21.495c0.133,0,0.267,0.003,0.401,0.01c1.13,0.049,2.255,0.32,3.282,0.787
			c1.029,0.466,1.959,1.12,2.752,1.895c0.795,0.776,1.457,1.671,1.977,2.639c0.518,0.968,0.896,2.011,1.111,3.091
			c0.107,0.541,0.176,1.091,0.199,1.645c0.012,0.277,0.01,0.556,0.001,0.834c-0.013,0.269-0.03,0.534-0.056,0.8
			c-0.102,1.065-0.322,2.123-0.66,3.141c-0.338,1.018-0.791,1.997-1.34,2.912c-0.549,0.915-1.191,1.766-1.902,2.547
			c-0.709,0.782-1.486,1.493-2.307,2.138c-0.82,0.645-1.686,1.225-2.576,1.747c-0.893,0.521-1.812,0.985-2.749,1.401
			c-0.883,0.391-1.781,0.737-2.689,1.048c-0.909-0.311-1.807-0.657-2.689-1.048c-0.938-0.416-1.857-0.879-2.748-1.401
			c-0.893-0.521-1.757-1.102-2.577-1.747c-0.82-0.646-1.598-1.356-2.307-2.138c-0.71-0.781-1.354-1.633-1.902-2.547
			c-0.549-0.915-1.002-1.894-1.34-2.912c-0.338-1.018-0.559-2.075-0.66-3.141c-0.024-0.266-0.044-0.531-0.055-0.8
			c-0.011-0.278-0.011-0.557,0-0.834c0.023-0.553,0.091-1.104,0.198-1.645c0.217-1.08,0.594-2.123,1.112-3.091
			c0.52-0.968,1.183-1.863,1.977-2.639c0.793-0.774,1.724-1.429,2.752-1.895c1.027-0.467,2.153-0.738,3.283-0.787
			c0.133-0.007,0.268-0.01,0.401-0.01c0.994,0,1.979,0.165,2.906,0.453c0.571,0.176,1.12,0.4,1.648,0.656
			c0.528-0.256,1.076-0.48,1.649-0.656C102.576,21.66,103.56,21.495,104.556,21.495 M104.556,20.75c-1.038,0-2.09,0.164-3.128,0.487
			c-0.471,0.146-0.949,0.329-1.428,0.545c-0.478-0.217-0.956-0.399-1.429-0.545c-1.037-0.323-2.09-0.487-3.126-0.487
			c-0.146,0-0.292,0.004-0.436,0.01c-1.214,0.052-2.445,0.348-3.558,0.853c-1.082,0.49-2.079,1.177-2.963,2.039
			c-0.836,0.817-1.547,1.765-2.112,2.82c-0.558,1.041-0.957,2.15-1.187,3.297c-0.117,0.584-0.188,1.176-0.212,1.76
			c-0.012,0.29-0.012,0.59,0,0.893c0.011,0.272,0.03,0.548,0.058,0.842c0.106,1.128,0.342,2.241,0.694,3.305
			c0.35,1.055,0.823,2.085,1.407,3.059c0.558,0.929,1.227,1.826,1.99,2.666c0.709,0.782,1.516,1.529,2.397,2.223
			c0.815,0.642,1.711,1.248,2.661,1.804c0.881,0.516,1.83,1,2.822,1.439c0.86,0.381,1.786,0.742,2.751,1.072l0.24,0.083l0.241-0.083
			c0.963-0.329,1.89-0.69,2.751-1.072c0.992-0.439,1.941-0.923,2.822-1.439c0.949-0.556,1.845-1.162,2.659-1.804
			c0.882-0.692,1.689-1.44,2.4-2.223c0.762-0.839,1.432-1.736,1.988-2.666c0.584-0.974,1.057-2.003,1.407-3.06
			c0.354-1.065,0.587-2.177,0.694-3.304c0.027-0.288,0.047-0.562,0.059-0.841c0.012-0.31,0.011-0.61-0.002-0.896
			c-0.022-0.583-0.095-1.174-0.211-1.759c-0.229-1.147-0.628-2.256-1.186-3.297c-0.566-1.056-1.277-2.004-2.113-2.82
			c-0.883-0.862-1.881-1.549-2.965-2.04c-1.111-0.505-2.341-0.8-3.558-0.853C104.847,20.754,104.701,20.75,104.556,20.75
			L104.556,20.75z"/>
		<path fill="#F5F6F7" d="M104.556,20.75c0.145,0,0.291,0.004,0.433,0.01c1.217,0.052,2.446,0.348,3.558,0.853
			c1.084,0.491,2.082,1.177,2.965,2.04c0.836,0.815,1.547,1.764,2.113,2.82c0.558,1.041,0.956,2.15,1.186,3.297
			c0.116,0.584,0.188,1.176,0.211,1.759c0.013,0.286,0.014,0.586,0.002,0.896c-0.012,0.279-0.031,0.553-0.059,0.841
			c-0.107,1.127-0.34,2.239-0.694,3.304c-0.351,1.057-0.823,2.086-1.407,3.06c-0.557,0.929-1.227,1.826-1.988,2.666
			c-0.711,0.782-1.519,1.53-2.4,2.223c-0.814,0.642-1.71,1.248-2.659,1.804c-0.881,0.516-1.83,1-2.822,1.439
			c-0.861,0.382-1.788,0.743-2.751,1.072L100,48.914l-0.24-0.083c-0.965-0.33-1.891-0.69-2.751-1.072
			c-0.992-0.439-1.941-0.923-2.822-1.439c-0.95-0.556-1.846-1.162-2.661-1.804c-0.882-0.693-1.688-1.44-2.397-2.223
			c-0.764-0.839-1.433-1.736-1.99-2.666c-0.584-0.974-1.058-2.004-1.407-3.059c-0.353-1.064-0.588-2.176-0.694-3.305
			c-0.027-0.294-0.047-0.57-0.058-0.842c-0.012-0.302-0.012-0.603,0-0.893c0.024-0.584,0.095-1.176,0.212-1.76
			c0.229-1.147,0.629-2.257,1.187-3.297c0.565-1.055,1.276-2.003,2.112-2.82c0.884-0.862,1.881-1.549,2.963-2.039
			c1.112-0.505,2.344-0.801,3.558-0.853c0.144-0.006,0.29-0.01,0.436-0.01c1.036,0,2.089,0.164,3.126,0.487
			c0.473,0.146,0.951,0.329,1.429,0.545c0.479-0.217,0.957-0.399,1.428-0.545C102.466,20.915,103.518,20.75,104.556,20.75
			 M104.556,20.007c-1.112,0-2.239,0.175-3.349,0.52c-0.397,0.123-0.803,0.271-1.207,0.443c-0.404-0.172-0.81-0.32-1.209-0.444
			c-1.107-0.345-2.235-0.519-3.346-0.519c-0.156,0-0.313,0.003-0.468,0.01c-1.311,0.057-2.636,0.375-3.833,0.92
			c-1.161,0.525-2.229,1.26-3.175,2.185c-0.89,0.868-1.646,1.877-2.249,2.999c-0.593,1.106-1.016,2.285-1.26,3.503
			c-0.124,0.622-0.199,1.252-0.226,1.875c-0.014,0.311-0.014,0.632-0.001,0.953c0.012,0.287,0.031,0.574,0.06,0.882
			c0.114,1.185,0.359,2.352,0.729,3.47c0.367,1.106,0.864,2.186,1.476,3.207c0.583,0.973,1.282,1.908,2.078,2.785
			c0.736,0.811,1.573,1.587,2.487,2.306c0.844,0.663,1.766,1.289,2.745,1.862c0.906,0.529,1.88,1.026,2.897,1.477
			c0.881,0.39,1.826,0.758,2.812,1.095l0.241,0.082l0.24,0.083l0.241-0.083l0.24-0.082c0.985-0.337,1.932-0.706,2.812-1.095
			c1.018-0.451,1.991-0.948,2.896-1.477c0.979-0.574,1.903-1.2,2.745-1.861c0.914-0.719,1.75-1.495,2.489-2.307
			c0.796-0.876,1.495-1.813,2.077-2.785c0.611-1.02,1.107-2.1,1.475-3.208c0.372-1.118,0.617-2.285,0.73-3.468
			c0.028-0.299,0.047-0.587,0.06-0.88c0.014-0.331,0.013-0.653,0-0.959c-0.026-0.619-0.102-1.249-0.227-1.872
			c-0.243-1.22-0.667-2.398-1.26-3.503c-0.603-1.123-1.359-2.133-2.247-3.001c-0.947-0.923-2.016-1.659-3.18-2.186
			c-1.195-0.544-2.521-0.861-3.832-0.918C104.868,20.01,104.71,20.007,104.556,20.007L104.556,20.007z"/>
		<path fill="#57459B" d="M100,30.653c1.919,0,3.481,1.562,3.481,3.481s-1.562,3.481-3.481,3.481s-3.481-1.562-3.481-3.481
			S98.082,30.653,100,30.653 M100,29.602c-2.503,0-4.533,2.029-4.533,4.533c0,2.502,2.03,4.532,4.533,4.532
			c2.504,0,4.532-2.029,4.532-4.532C104.533,31.631,102.504,29.602,100,29.602L100,29.602z"/>
		<path fill="#57459B" d="M100,29.254c2.69,0,4.88,2.189,4.88,4.88s-2.189,4.88-4.88,4.88c-2.691,0-4.88-2.189-4.88-4.88
			S97.309,29.254,100,29.254 M100,28.713c-2.995,0-5.421,2.427-5.421,5.421c0,2.994,2.426,5.421,5.421,5.421
			c2.994,0,5.421-2.427,5.421-5.421C105.421,31.14,102.995,28.713,100,28.713L100,28.713z"/>
		<g>
			<g>
				<path fill-rule="evenodd" clip-rule="evenodd" fill="#57459B" d="M114.279,31.582c-0.023-0.554-0.092-1.104-0.199-1.646
					c-0.215-1.08-0.594-2.123-1.111-3.091c-0.52-0.968-1.182-1.863-1.977-2.639c-0.793-0.774-1.723-1.429-2.752-1.894
					c-1.027-0.467-2.152-0.739-3.282-0.788c-1.131-0.05-2.257,0.117-3.308,0.444c-0.573,0.177-1.121,0.401-1.649,0.657
					c-0.528-0.256-1.077-0.48-1.648-0.657c-1.052-0.327-2.178-0.495-3.308-0.444c-1.13,0.049-2.256,0.321-3.283,0.788
					c-1.028,0.465-1.959,1.12-2.752,1.894c-0.794,0.776-1.457,1.671-1.977,2.639c-0.519,0.968-0.896,2.011-1.112,3.091
					c-0.107,0.542-0.175,1.091-0.198,1.646c-0.011,0.276-0.011,0.555,0,0.833c0.011,0.269,0.03,0.534,0.055,0.801
					c0.102,1.064,0.322,2.122,0.66,3.14c0.338,1.019,0.791,1.997,1.34,2.911c0.549,0.916,1.192,1.768,1.902,2.548
					c0.709,0.782,1.486,1.494,2.307,2.139c0.82,0.645,1.685,1.224,2.577,1.746c0.891,0.522,1.811,0.986,2.748,1.401
					c0.883,0.392,1.78,0.738,2.689,1.048c0.908-0.311,1.807-0.657,2.689-1.048c0.938-0.415,1.856-0.879,2.749-1.401
					c0.891-0.522,1.756-1.102,2.576-1.746c0.82-0.645,1.598-1.356,2.307-2.139c0.711-0.781,1.354-1.633,1.902-2.548
					c0.549-0.914,1.002-1.892,1.34-2.911c0.338-1.018,0.559-2.075,0.66-3.14c0.025-0.267,0.043-0.532,0.056-0.801
					C114.289,32.137,114.291,31.858,114.279,31.582z M111.974,32.393c-0.01,0.222-0.025,0.45-0.047,0.673
					c-0.085,0.897-0.271,1.781-0.553,2.635c-0.283,0.853-0.664,1.675-1.129,2.451s-1.014,1.505-1.63,2.183
					c-0.616,0.677-1.298,1.303-2.026,1.875c-0.729,0.574-1.506,1.095-2.315,1.569s-1.653,0.9-2.519,1.283
					c-0.575,0.255-1.161,0.49-1.755,0.709c-0.593-0.219-1.181-0.454-1.755-0.709c-0.865-0.383-1.708-0.809-2.518-1.283
					s-1.587-0.995-2.316-1.569c-0.729-0.573-1.411-1.198-2.026-1.875c-0.616-0.678-1.165-1.407-1.631-2.183
					c-0.465-0.776-0.845-1.598-1.127-2.451c-0.283-0.854-0.469-1.738-0.555-2.635c-0.021-0.224-0.036-0.451-0.046-0.673
					c-0.008-0.214-0.008-0.43,0.001-0.646c0.018-0.43,0.069-0.861,0.155-1.288c0.169-0.853,0.471-1.684,0.883-2.453
					s0.938-1.476,1.554-2.078c0.617-0.602,1.325-1.097,2.093-1.444c0.769-0.349,1.594-0.546,2.434-0.584
					c0.841-0.037,1.694,0.085,2.524,0.343c0.804,0.249,1.587,0.624,2.33,1.083c0.744-0.459,1.525-0.834,2.331-1.083
					c0.829-0.258,1.682-0.38,2.522-0.343c0.842,0.038,1.666,0.235,2.434,0.584c0.769,0.347,1.478,0.842,2.093,1.444
					c0.617,0.603,1.143,1.309,1.555,2.078s0.713,1.6,0.883,2.453c0.086,0.427,0.137,0.858,0.156,1.288
					C111.982,31.963,111.982,32.179,111.974,32.393z"/>
			</g>
		</g>
		<path fill-rule="evenodd" clip-rule="evenodd" fill="#080808" d="M98.198,43.938h3.435v0.311h-3.435V43.938L98.198,43.938z
			 M98.198,43.938"/>
		<path fill-rule="evenodd" clip-rule="evenodd" fill="#080808" d="M99.915,26.485c0.208,0,0.376,0.168,0.376,0.376
			s-0.168,0.375-0.376,0.375c-0.207,0-0.375-0.168-0.375-0.375S99.708,26.485,99.915,26.485"/>
		<g>
			<path fill="#080808" d="M90.782,34.326c0.018,0,0.025,0.008,0.025,0.035c0.008,0.14,0.044,0.307,0.167,0.5
				c0.132,0.21,0.359,0.315,0.578,0.315c0.237,0,0.569-0.148,0.569-0.513c0-0.403-0.184-0.534-0.648-0.709
				c-0.14-0.053-0.43-0.175-0.64-0.368c-0.148-0.14-0.219-0.359-0.219-0.626c0-0.245,0.097-0.447,0.307-0.614
				c0.175-0.148,0.369-0.21,0.622-0.21c0.289,0,0.464,0.071,0.553,0.106c0.043,0.018,0.068,0.008,0.092-0.014l0.057-0.057
				c0.018-0.018,0.035-0.026,0.062-0.026c0.025,0,0.035,0.026,0.035,0.07c0,0.07,0.07,0.683,0.07,0.728
				c0,0.017-0.01,0.026-0.027,0.03l-0.07,0.022c-0.017,0.005-0.034,0-0.043-0.026c-0.044-0.123-0.114-0.298-0.271-0.465
				c-0.114-0.123-0.255-0.184-0.456-0.184c-0.351,0-0.49,0.28-0.49,0.442c0,0.149,0.018,0.281,0.123,0.395
				c0.114,0.114,0.358,0.22,0.533,0.271c0.255,0.08,0.465,0.167,0.632,0.343c0.14,0.148,0.219,0.333,0.219,0.626
				c0,0.535-0.351,0.973-0.93,0.973c-0.359,0-0.569-0.08-0.744-0.209c-0.053-0.036-0.079-0.053-0.104-0.053
				c-0.027,0-0.045,0.035-0.07,0.079c-0.026,0.043-0.045,0.053-0.079,0.053c-0.035,0-0.053-0.027-0.053-0.071
				c0.008-0.053,0.07-0.762,0.078-0.815c0.005-0.026,0.009-0.035,0.027-0.035L90.782,34.326z"/>
			<path fill="#080808" d="M109.716,34.588c0.014,0.013,0.019,0.026,0.01,0.044c-0.263,0.376-0.684,0.736-1.306,0.736
				c-0.56,0-0.876-0.167-1.147-0.412c-0.324-0.289-0.474-0.798-0.474-1.183c0-0.43,0.14-0.842,0.446-1.175
				c0.237-0.254,0.615-0.465,1.14-0.465c0.403,0,0.728,0.124,0.886,0.21c0.061,0.035,0.078,0.035,0.088,0l0.034-0.114
				c0.009-0.026,0.018-0.026,0.07-0.026s0.062,0.009,0.062,0.07c0,0.079,0.088,0.78,0.105,0.912c0.004,0.026,0,0.039-0.018,0.043
				l-0.084,0.025c-0.021,0.01-0.034-0.008-0.048-0.043c-0.053-0.158-0.159-0.377-0.342-0.57c-0.192-0.185-0.421-0.324-0.763-0.324
				c-0.701,0-0.99,0.631-0.99,1.262c0,0.272,0.079,0.789,0.403,1.139c0.289,0.307,0.544,0.342,0.753,0.342
				c0.482,0,0.863-0.241,1.049-0.508c0.021-0.031,0.039-0.045,0.051-0.031L109.716,34.588z"/>
		</g>
		<g>
			<path fill="#080808" d="M96.987,43.119c-0.042,0-0.089,0.002-0.132,0.002c-0.042,0.004-0.085,0.007-0.132,0.007
				c-0.019,0-0.025,0-0.039-0.016c-0.007-0.026,0-0.046,0.021-0.066c0.132-0.125,0.415-0.382,0.671-0.678
				c0.224-0.27,0.355-0.527,0.349-0.806c-0.014-0.257-0.164-0.429-0.395-0.422s-0.343,0.165-0.408,0.277
				c-0.014,0.026-0.027,0.026-0.039,0.02L96.83,41.41c-0.007-0.007-0.014-0.014,0-0.046c0.053-0.125,0.224-0.494,0.685-0.494
				c0.323,0,0.604,0.256,0.604,0.596c0,0.283-0.124,0.541-0.454,0.876c-0.21,0.211-0.408,0.369-0.52,0.475h0.606
				c0.217,0,0.303-0.132,0.374-0.25c0.021-0.033,0.027-0.04,0.06-0.02c0.033,0.013,0.044,0.026,0.033,0.053l-0.224,0.566
				c-0.013,0.026-0.007,0.033-0.047,0.033c-0.032,0-0.032-0.007-0.046-0.033c-0.019-0.039-0.078-0.046-0.196-0.046H96.987z"/>
			<path fill="#080808" d="M99.881,41.996c0,0.751-0.257,1.172-0.711,1.172c-0.567,0-0.752-0.646-0.752-1.048
				c0-0.743,0.284-1.25,0.745-1.25C99.723,40.87,99.881,41.502,99.881,41.996z M98.919,41.212c-0.079,0.23-0.104,0.592-0.104,0.856
				c0,0.316,0.019,0.553,0.078,0.705c0.072,0.197,0.165,0.263,0.277,0.263c0.105,0,0.196-0.053,0.249-0.224
				c0.053-0.158,0.073-0.408,0.073-0.882c0-0.52-0.112-0.928-0.329-0.928C99.045,41.001,98.972,41.074,98.919,41.212z"/>
			<path fill="#080808" d="M100.665,41.482c0-0.099-0.021-0.172-0.078-0.172c-0.033,0-0.08,0.007-0.139,0.027l-0.198,0.058
				c-0.014,0.007-0.025,0.007-0.032-0.006l-0.027-0.066c-0.005-0.014,0-0.026,0.021-0.04l0.757-0.396
				c0.021-0.009,0.039-0.019,0.06-0.019s0.025,0.014,0.025,0.053c0,0.026-0.012,0.54-0.012,0.964v0.138
				c0,0.111,0.007,0.737,0.007,0.78c0,0.172,0.012,0.191,0.196,0.191h0.12c0.025,0,0.032,0.01,0.032,0.023v0.083
				c0,0.019-0.007,0.025-0.032,0.025c-0.027,0-0.476-0.009-0.528-0.009c-0.064,0-0.526,0.009-0.546,0.009
				c-0.017,0-0.026-0.007-0.026-0.023V43.02c0-0.02,0.014-0.023,0.037-0.023h0.127c0.198,0,0.224-0.007,0.23-0.181
				c0.007-0.093,0.007-0.592,0.007-0.685V41.482z"/>
			<path fill="#080808" d="M103.147,42.378c0,0.303-0.093,0.467-0.21,0.579c-0.139,0.139-0.277,0.211-0.508,0.211
				s-0.381-0.072-0.486-0.204c-0.178-0.211-0.211-0.454-0.211-0.626c0-0.428,0.184-0.81,0.467-1.08
				c0.198-0.184,0.395-0.289,0.574-0.355c0.071-0.019,0.117-0.033,0.138-0.033c0.02,0,0.045,0.019,0.045,0.04
				c0,0.026-0.012,0.053-0.052,0.066c-0.265,0.104-0.652,0.48-0.741,0.937l0.011,0.014c0.085-0.079,0.23-0.138,0.395-0.138
				C102.983,41.788,103.147,42.131,103.147,42.378z M102.187,42.071c-0.061,0.072-0.066,0.21-0.066,0.399
				c0,0.178,0.032,0.579,0.336,0.579c0.091,0,0.31-0.039,0.31-0.53c0-0.302-0.12-0.553-0.337-0.553
				C102.297,41.966,102.226,42.012,102.187,42.071z"/>
		</g>
		<g>
			<path fill="#080808" d="M96.178,27.142c0.004,0.237,0.014,0.666,0.014,0.745c0,0.228,0.078,0.315,0.175,0.342
				c0.07,0.018,0.175,0.035,0.342,0.035c0.079,0,0.281-0.009,0.367-0.017c0.08-0.009,0.246-0.053,0.359-0.149
				c0.079-0.071,0.324-0.359,0.408-0.464c0.019-0.022,0.03-0.027,0.048-0.018l0.07,0.044c0.014,0.008,0.018,0.021,0.009,0.043
				l-0.211,0.658c-0.014,0.039-0.043,0.065-0.096,0.065c-0.021,0-0.118-0.004-0.391-0.009c-0.275,0-0.728-0.004-1.458-0.004
				c-0.163,0-0.281,0.004-0.373,0.004c-0.088,0.005-0.149,0.009-0.188,0.009c-0.026,0-0.035-0.009-0.035-0.035v-0.104
				c0-0.026,0.009-0.035,0.045-0.035h0.148c0.201,0,0.219-0.026,0.219-0.188V27.02V26.59c0-0.36-0.008-0.903-0.018-0.964
				c-0.018-0.119-0.062-0.153-0.192-0.153h-0.167c-0.018,0-0.026-0.009-0.026-0.031v-0.114c0-0.022,0.005-0.031,0.026-0.031
				c0.096,0,0.254,0.017,0.613,0.013h0.123c0.192,0,1.2-0.009,1.393-0.009c0.07,0,0.153-0.004,0.177-0.004
				c0.021,0,0.029,0.009,0.034,0.027c0.018,0.057,0.184,0.652,0.201,0.696c0.01,0.026,0.005,0.039-0.013,0.048l-0.079,0.036
				c-0.012,0.004-0.025,0-0.039-0.022c-0.018-0.026-0.377-0.43-0.481-0.491c-0.093-0.053-0.211-0.11-0.334-0.114l-0.666-0.018
				l-0.008,1.266c0.132,0,0.446-0.009,0.499-0.021c0.097-0.018,0.149-0.053,0.202-0.158c0.025-0.057,0.069-0.167,0.069-0.246
				c0-0.025,0.018-0.035,0.035-0.035l0.113,0.01c0.019,0,0.031,0.008,0.026,0.035c-0.008,0.069-0.008,0.359-0.008,0.473
				c0,0.176,0.018,0.386,0.025,0.482c0,0.022-0.008,0.026-0.034,0.031l-0.098,0.017c-0.016,0.005-0.025-0.005-0.034-0.03
				c-0.018-0.071-0.049-0.167-0.07-0.22c-0.039-0.087-0.122-0.149-0.22-0.158c-0.157-0.018-0.367-0.026-0.507-0.026L96.178,27.142z"
				/>
			<path fill="#080808" d="M102.662,27.238c0,0.27,0.009,0.774,0.018,0.842c0.014,0.089,0.045,0.171,0.118,0.171h0.225
				c0.025,0,0.035,0.014,0.035,0.031v0.108c0,0.031-0.014,0.04-0.049,0.04c-0.06,0-0.149-0.014-0.617-0.014
				c-0.44,0-0.549,0.014-0.594,0.014c-0.027,0-0.037-0.014-0.037-0.04v-0.104c0-0.021,0.01-0.035,0.027-0.035h0.153
				c0.1,0,0.171-0.027,0.171-0.149c0.01-0.45,0.01-0.874,0.01-1.296v-1.184c0-0.153-0.063-0.225-0.144-0.225h-0.177
				c-0.022,0-0.031-0.009-0.031-0.027v-0.121c0-0.022,0.009-0.031,0.031-0.031c0.031,0,0.177,0.013,0.617,0.013
				c0.252,0,0.666-0.013,0.802-0.013c0.359,0,0.639,0.121,0.819,0.284c0.161,0.144,0.242,0.332,0.242,0.503
				c0,0.568-0.342,0.802-0.837,0.883v0.018c0.127,0.045,0.207,0.126,0.271,0.208c0.054,0.072,0.332,0.495,0.369,0.549
				c0.026,0.045,0.314,0.451,0.382,0.513c0.086,0.078,0.212,0.086,0.32,0.086c0.027,0,0.035,0.013,0.035,0.032v0.094
				c0,0.032-0.008,0.045-0.035,0.045c-0.037,0-0.153-0.014-0.442-0.014c-0.126,0-0.297,0.009-0.396,0.014
				c-0.053-0.04-0.14-0.162-0.198-0.257c-0.08-0.125-0.257-0.449-0.297-0.522c-0.045-0.081-0.171-0.288-0.243-0.387
				c-0.112-0.157-0.216-0.279-0.405-0.279c-0.018,0-0.095,0.004-0.144,0.01V27.238z M102.67,26.832
				c0.062,0.01,0.117,0.019,0.171,0.019c0.703,0,0.847-0.568,0.847-0.774c0-0.207-0.085-0.401-0.198-0.505
				c-0.162-0.144-0.37-0.193-0.594-0.193c-0.073,0-0.126,0.004-0.163,0.027c-0.035,0.022-0.054,0.076-0.054,0.13L102.67,26.832z"/>
		</g>
	</g>
	<g>
		<path fill="#171617" d="M91.864,20.904c-0.048-0.004-0.098-0.008-0.127-0.014c-0.104-0.022-0.258-0.085-0.336-0.123
			c-0.64-0.312-1.127-0.978-1.518-1.512c-0.08-0.11-0.158-0.22-0.235-0.328c-0.222-0.312-0.432-0.606-0.676-0.88
			c-0.286-0.32-0.629-0.592-0.963-0.855c-0.458-0.362-0.892-0.705-1.18-1.16c-0.284-0.446-0.52-1.02-0.748-1.575
			c-0.18-0.436-0.366-0.887-0.576-1.284l-0.017-0.029c-0.249-0.469-0.465-0.875-0.428-1.474c0.047-0.76,0.294-1.437,0.511-2.034
			l0.014-0.038c0.236-0.647,0.567-1.022,1.046-1.521c0.82-0.853,1.75-1.82,2.076-3.402l0.065-0.319l-0.313,0.085
			c-0.214,0.059-0.355,0.27-0.457,0.425l-0.036,0.053c-0.142,0.207-0.274,0.413-0.403,0.61c-0.507,0.782-0.984,1.521-1.79,2.052
			c-0.199,0.131-0.369,0.209-0.463,0.194c-0.125-0.021-0.269-0.564-0.315-0.742c-0.022-0.084-0.044-0.162-0.062-0.227
			c-0.132-0.427-0.264-0.88-0.286-1.301c-0.026-0.458,0.05-0.899,0.229-1.352c0.037-0.093,0.083-0.183,0.131-0.28
			c0.108-0.213,0.22-0.433,0.245-0.709l0.021-0.219h-0.318l-0.054,0.038c-0.331,0.241-0.562,0.691-0.771,1.131
			c-0.168,0.354-0.365,0.827-0.4,1.352c-0.039,0.602,0.084,1.165,0.213,1.688c0.04,0.155,0.087,0.312,0.134,0.464
			c0.106,0.354,0.207,0.689,0.207,1.01c0,0.38-0.085,0.708-0.186,1.088l-0.044,0.167c-0.047,0.184-0.191,0.741-0.35,0.742
			c-0.065,0-0.221-0.172-0.279-0.237c-0.046-0.051-0.087-0.095-0.126-0.129c-0.159-0.136-0.311-0.286-0.352-0.45
			c-0.056-0.231,0.039-0.56,0.132-0.876c0.049-0.168,0.099-0.341,0.13-0.51c0.039-0.208,0.086-0.484,0.091-0.759V7.613
			c0.007-0.232,0.017-0.583-0.254-0.786L82.89,6.711l-0.122,0.149C82.617,7.047,82.6,7.287,82.586,7.5
			c-0.004,0.062-0.008,0.126-0.016,0.188c-0.038,0.288-0.086,0.52-0.148,0.706c-0.155,0.47-0.424,0.926-0.562,0.958
			c-0.015,0.003-0.031,0.005-0.05,0.005c-0.207,0-0.52-0.196-0.688-0.3L81.11,9.048c-0.271-0.169-0.447-0.34-0.574-0.554
			c-0.096-0.167-0.158-0.378-0.225-0.603c-0.072-0.248-0.148-0.503-0.278-0.717l-0.309-0.502L79.664,7.26
			c-0.103,1.003,0.237,2.032,0.847,2.559c0.221,0.192,0.494,0.335,0.757,0.474c0.065,0.035,0.13,0.069,0.194,0.104
			c0.968,0.529,1.724,1.217,2.244,2.042c0.363,0.574,0.694,1.22,1.029,1.885c0.125,0.25,0.289,0.589,0.441,1
			c0.014,0.036,0.029,0.078,0.047,0.124c0.091,0.233,0.281,0.716,0.209,0.94c-0.012,0.038-0.12,0.232-1.03,0.232
			c-0.129,0-0.253-0.003-0.362-0.008c-1.736-0.073-2.531-0.881-3.079-1.663c-0.036-0.05-0.069-0.105-0.103-0.16
			c-0.094-0.154-0.2-0.33-0.378-0.458l-0.311-0.223l-0.005,0.382c-0.008,0.547,0.262,1.001,0.46,1.333
			c0.706,1.186,1.766,1.868,3.238,2.085c0.243,0.036,0.508,0.052,0.833,0.052c0.185,0,0.37-0.005,0.558-0.011l0.2-0.005
			c0.892-0.023,1.442,0.398,2.022,0.842c0.069,0.052,0.137,0.104,0.206,0.157c0.042,0.031,0.093,0.065,0.146,0.104
			c0.208,0.145,0.595,0.417,0.588,0.61c-0.005,0.101-0.209,0.256-0.317,0.34l-0.038,0.028c-0.464,0.357-1.169,0.795-1.886,0.859
			c-0.803,0.07-1.444-0.13-2.03-0.643c-0.022-0.021-0.046-0.042-0.07-0.064c-0.152-0.138-0.341-0.31-0.604-0.347l-0.35-0.049
			l0.138,0.325c0.215,0.504,0.536,0.817,0.852,1.08c0.399,0.331,0.797,0.541,1.254,0.662c0.27,0.072,0.558,0.108,0.855,0.108
			c0.572,0,1.136-0.135,1.544-0.37c0.092-0.054,0.172-0.116,0.249-0.176c0.09-0.07,0.174-0.135,0.271-0.18
			c0.147-0.068,0.329-0.102,0.538-0.102c0.419,0,0.827,0.136,1.05,0.253c0.2,0.105,0.481,0.441,0.465,0.728
			c-0.016,0.266-0.279,0.624-0.378,0.76c-0.108,0.149-0.213,0.26-0.319,0.339l-0.081,0.061v1.288l0.272-0.021
			c0.77-0.083,1.061-0.795,1.218-1.178l0.029-0.068c0.068-0.17,0.252-0.621,0.368-0.672c0.044-0.02,0.1-0.027,0.157-0.035
			c0.087-0.012,0.185-0.026,0.277-0.079c0.231-0.134,0.359-0.461,0.402-0.597c0.098-0.303,0.185-0.676-0.014-0.876
			C92.169,20.93,92.013,20.917,91.864,20.904z"/>
		<path fill="#171617" d="M119.52,14.332c-0.177,0.128-0.283,0.303-0.377,0.458c-0.034,0.055-0.066,0.11-0.102,0.16
			c-0.55,0.781-1.345,1.589-3.08,1.663c-0.11,0.005-0.233,0.008-0.362,0.008c-0.91,0-1.019-0.194-1.031-0.232
			c-0.071-0.225,0.119-0.708,0.209-0.94c0.018-0.047,0.034-0.088,0.048-0.124c0.153-0.412,0.315-0.75,0.44-1
			c0.35-0.693,0.666-1.312,1.028-1.885c0.522-0.827,1.278-1.513,2.246-2.042c0.063-0.035,0.129-0.069,0.194-0.104
			c0.263-0.139,0.535-0.282,0.756-0.474c0.611-0.526,0.951-1.555,0.848-2.559l-0.061-0.587l-0.309,0.502
			c-0.131,0.214-0.205,0.469-0.278,0.716c-0.066,0.225-0.128,0.437-0.226,0.603c-0.126,0.213-0.303,0.384-0.573,0.554l-0.013,0.008
			c-0.168,0.104-0.48,0.3-0.688,0.3c-0.019,0-0.035-0.002-0.05-0.005c-0.139-0.032-0.407-0.488-0.563-0.958
			c-0.062-0.186-0.109-0.417-0.147-0.706c-0.009-0.062-0.013-0.126-0.017-0.19c-0.014-0.211-0.029-0.452-0.183-0.637l-0.12-0.149
			l-0.154,0.115c-0.27,0.202-0.26,0.554-0.254,0.786v0.053c0.006,0.275,0.053,0.551,0.092,0.759c0.031,0.168,0.081,0.342,0.13,0.51
			c0.093,0.316,0.187,0.645,0.132,0.876c-0.041,0.164-0.193,0.313-0.352,0.45c-0.039,0.034-0.08,0.078-0.126,0.129
			c-0.059,0.064-0.214,0.237-0.279,0.237c-0.159,0-0.303-0.558-0.351-0.741l-0.043-0.168c-0.101-0.38-0.186-0.708-0.186-1.088
			c0-0.321,0.1-0.655,0.207-1.009c0.047-0.152,0.094-0.31,0.133-0.465c0.129-0.523,0.252-1.085,0.213-1.688
			c-0.035-0.525-0.231-0.998-0.4-1.352c-0.208-0.44-0.439-0.891-0.771-1.131l-0.053-0.038h-0.318l0.02,0.219
			c0.026,0.276,0.138,0.496,0.246,0.709c0.047,0.097,0.094,0.187,0.131,0.28c0.178,0.453,0.253,0.895,0.229,1.352
			c-0.023,0.422-0.154,0.874-0.286,1.301c-0.019,0.065-0.039,0.142-0.062,0.226c-0.048,0.178-0.19,0.722-0.315,0.743
			c-0.093,0.015-0.265-0.063-0.463-0.194c-0.806-0.532-1.283-1.271-1.791-2.052c-0.128-0.198-0.262-0.403-0.402-0.61l-0.037-0.053
			c-0.102-0.155-0.242-0.366-0.457-0.425l-0.312-0.085l0.064,0.319c0.327,1.582,1.256,2.549,2.077,3.402
			c0.479,0.499,0.81,0.874,1.046,1.521l0.014,0.04c0.217,0.597,0.463,1.273,0.511,2.032c0.036,0.599-0.179,1.004-0.429,1.474
			l-0.016,0.029c-0.211,0.396-0.396,0.848-0.576,1.284c-0.229,0.554-0.466,1.128-0.748,1.574c-0.289,0.455-0.722,0.797-1.18,1.16
			c-0.334,0.263-0.677,0.535-0.963,0.855c-0.244,0.274-0.455,0.568-0.676,0.88c-0.077,0.108-0.156,0.218-0.236,0.328
			c-0.392,0.535-0.879,1.201-1.518,1.512c-0.077,0.038-0.231,0.101-0.335,0.123c-0.03,0.006-0.079,0.01-0.128,0.014
			c-0.15,0.013-0.305,0.026-0.404,0.127c-0.199,0.2-0.111,0.574-0.014,0.876c0.043,0.135,0.17,0.462,0.402,0.597
			c0.092,0.053,0.189,0.066,0.277,0.079c0.058,0.008,0.113,0.015,0.156,0.035c0.117,0.051,0.301,0.501,0.369,0.67l0.029,0.07
			c0.156,0.383,0.448,1.095,1.219,1.178l0.271,0.021V23.27l-0.082-0.061c-0.104-0.079-0.21-0.19-0.32-0.339
			c-0.098-0.136-0.36-0.495-0.377-0.76c-0.016-0.286,0.266-0.623,0.466-0.728c0.222-0.117,0.63-0.253,1.05-0.253
			c0.209,0,0.391,0.034,0.538,0.102c0.097,0.044,0.181,0.11,0.271,0.181c0.077,0.06,0.156,0.121,0.249,0.175
			c0.408,0.235,0.972,0.37,1.544,0.37c0.298,0,0.586-0.037,0.857-0.108c0.455-0.121,0.853-0.331,1.252-0.662
			c0.315-0.262,0.637-0.574,0.852-1.08l0.138-0.325l-0.35,0.049c-0.263,0.038-0.452,0.209-0.604,0.347
			c-0.024,0.022-0.048,0.043-0.071,0.064c-0.586,0.513-1.227,0.714-2.029,0.644c-0.718-0.064-1.422-0.502-1.886-0.859l-0.036-0.028
			c-0.11-0.083-0.314-0.239-0.319-0.34c-0.007-0.194,0.38-0.465,0.587-0.61c0.055-0.038,0.105-0.072,0.146-0.104
			c0.07-0.052,0.138-0.104,0.207-0.157c0.58-0.444,1.128-0.865,2.021-0.842l0.201,0.005c0.188,0.005,0.373,0.011,0.557,0.011
			c0.326,0,0.591-0.016,0.834-0.052c1.473-0.217,2.531-0.899,3.238-2.085c0.198-0.333,0.469-0.787,0.46-1.333l-0.005-0.382
			L119.52,14.332z"/>
	</g>
	<g>
		<path fill-rule="evenodd" clip-rule="evenodd" fill="#F4F5F6" d="M114.058,31.508c-0.022-0.546-0.09-1.087-0.195-1.619
			c-0.213-1.064-0.584-2.091-1.094-3.044c-0.512-0.952-1.164-1.833-1.947-2.597c-0.781-0.763-1.696-1.406-2.709-1.866
			c-1.011-0.459-2.119-0.727-3.232-0.775c-1.112-0.05-2.222,0.115-3.257,0.438c-0.562,0.174-1.104,0.394-1.623,0.646
			c-0.52-0.252-1.061-0.472-1.624-0.646c-1.034-0.322-2.144-0.488-3.256-0.438c-1.112,0.048-2.221,0.315-3.232,0.775
			c-1.013,0.459-1.929,1.103-2.71,1.866c-0.782,0.764-1.434,1.645-1.944,2.597c-0.512,0.954-0.884,1.98-1.097,3.044
			c-0.105,0.532-0.172,1.073-0.195,1.619c-0.011,0.273-0.011,0.547,0,0.821c0.011,0.265,0.029,0.525,0.055,0.789
			c0.099,1.048,0.317,2.089,0.649,3.092c0.332,1.003,0.778,1.966,1.318,2.867c0.541,0.9,1.175,1.739,1.873,2.508
			c0.698,0.77,1.465,1.47,2.271,2.105c0.809,0.635,1.659,1.206,2.537,1.719c0.879,0.514,1.783,0.971,2.705,1.38
			c0.87,0.384,1.756,0.726,2.649,1.031c0.894-0.305,1.779-0.647,2.648-1.031c0.923-0.409,1.827-0.866,2.706-1.38
			c0.877-0.514,1.729-1.084,2.537-1.719c0.808-0.635,1.572-1.335,2.271-2.105c0.699-0.769,1.333-1.608,1.873-2.508
			c0.539-0.901,0.986-1.864,1.318-2.867c0.332-1.002,0.551-2.043,0.649-3.092c0.025-0.263,0.043-0.524,0.054-0.789
			C114.07,32.055,114.07,31.781,114.058,31.508z"/>
	</g>
	<g>
		<g>
			<path fill="#57459B" d="M98.356,33.412c-0.009,0.03-0.02,0.057-0.02,0.08c0,0.015,0.004,0.03,0.016,0.043
				c0.098,0.1,0.284,0.16,0.6,0.22c0.007,0,0.014,0,0.021,0c0.045,0,0.073-0.012,0.098-0.071c0.254-0.853,0.869-1.496,1.891-1.706
				c-0.359-0.15-0.597-0.199-0.96-0.216C99.185,32.106,98.553,32.71,98.356,33.412z"/>
			<path fill="#57459B" d="M97.875,33.31c-0.015,0.042-0.035,0.081-0.042,0.125c0.005,0.082,0.011,0.117,0.018,0.182
				c0.024,0.04,0.052,0.051,0.103,0.052c0.007,0,0.013,0,0.02,0c0.115-0.025,0.125-0.048,0.22-0.109
				c0.049-0.035,0.08-0.093,0.087-0.159c0.22-0.746,0.828-1.329,1.544-1.632C98.958,31.853,98.202,32.402,97.875,33.31z"/>
			<path fill="#57459B" d="M99.59,35.009c0.198,0,0.4-0.024,0.605-0.071c0.054-0.018,0.05-0.041,0.089-0.08
				c0.094-0.133,0.134-0.221,0.176-0.333c0.004-0.021,0.008-0.037,0.007-0.051c0-0.026-0.01-0.047-0.041-0.083
				c-0.135-0.12-0.226-0.183-0.39-0.26c-0.038-0.01-0.056-0.019-0.077-0.019l0,0c-0.015,0-0.031,0.004-0.057,0.016
				c-0.119,0.067-0.257,0.145-0.408,0.19c-0.024,0.007-0.045,0.01-0.062,0.01c-0.056,0-0.091-0.029-0.125-0.061
				c-0.109-0.109-0.167-0.23-0.24-0.359c-0.025-0.043-0.067-0.072-0.127-0.072c-0.013,0-0.024,0.001-0.038,0.003
				c-0.188-0.028-0.346-0.082-0.562-0.185c-0.02-0.019-0.037-0.026-0.056-0.026l0,0c-0.024,0-0.049,0.014-0.077,0.034
				c-0.084,0.042-0.142,0.091-0.251,0.109c-0.007,0.003-0.017,0.005-0.026,0.005c-0.039,0-0.096-0.022-0.119-0.077
				c-0.028-0.071-0.021-0.075-0.034-0.102c-0.016,0.083-0.035,0.282-0.035,0.423c0,0.028,0.002,0.056,0.002,0.076
				C98.278,34.721,98.91,35.009,99.59,35.009z"/>
			<g>
				<path fill="#57459B" d="M100.197,35.016c-0.01,0-0.019,0.001-0.028,0.002c-0.201,0.048-0.403,0.072-0.603,0.072
					c-0.654,0-1.288-0.268-1.815-0.866c0.046,0.386,0.123,0.619,0.288,0.942c0.55,0.42,1.184,0.662,1.77,0.662l0,0
					c0.164,0,0.325-0.019,0.479-0.059c0.054-0.01,0.096-0.013,0.109-0.057c0.01-0.033,0.016-0.071,0.016-0.113
					c0-0.124-0.042-0.289-0.121-0.514C100.266,35.042,100.248,35.018,100.197,35.016z"/>
				<polygon fill="#57459B" points="98.037,35.169 98.037,35.169 98.037,35.169 				"/>
			</g>
			<path fill="#57459B" d="M100.5,35.841c-0.024-0.013-0.053-0.018-0.081-0.018c-0.034,0-0.069,0.008-0.104,0.021
				c-0.171,0.042-0.346,0.061-0.521,0.061c-0.594,0-1.187-0.225-1.663-0.587c0.425,0.596,1.099,0.962,1.868,0.962
				c0.143,0,0.289-0.012,0.438-0.038c0.047-0.011,0.089-0.011,0.132-0.028c0.068-0.045,0.095-0.067,0.146-0.104
				c0.011-0.017,0.017-0.033,0.017-0.049c0-0.025-0.013-0.052-0.033-0.083C100.623,35.89,100.595,35.895,100.5,35.841z"/>
			<path fill="#57459B" d="M101.355,35.026c0-0.611-0.237-1.154-0.666-1.613c-0.045-0.037-0.06-0.024-0.113-0.037
				c-0.054-0.005-0.1-0.007-0.142-0.007c-0.087,0-0.157,0.008-0.237,0.02c-0.06,0.019-0.074,0.029-0.095,0.099
				c-0.027,0.121-0.041,0.209-0.041,0.312c0,0.046,0.003,0.095,0.009,0.15c0.015,0.068,0.011,0.079,0.062,0.121
				c0.12,0.067,0.257,0.147,0.371,0.257c0.044,0.043,0.06,0.083,0.06,0.122c0,0.022-0.006,0.043-0.01,0.064
				c-0.043,0.152-0.116,0.261-0.191,0.387c-0.014,0.024-0.021,0.05-0.021,0.076c0,0.033,0.013,0.068,0.042,0.104
				c0.066,0.176,0.103,0.338,0.124,0.579c-0.003,0.01-0.004,0.019-0.004,0.027c0,0.04,0.029,0.061,0.075,0.081
				c0.08,0.052,0.152,0.074,0.223,0.166c0.017,0.013,0.031,0.049,0.031,0.089c0,0.024-0.005,0.049-0.021,0.072
				c-0.049,0.061-0.056,0.056-0.074,0.081c0.097-0.034,0.338-0.15,0.447-0.222C101.299,35.631,101.355,35.321,101.355,35.026z"/>
			<g>
				<path fill="#57459B" d="M101.965,35.165c0.02-0.157,0.03-0.311,0.03-0.464c0-0.706-0.213-1.354-0.631-1.782
					c-0.031-0.035-0.057-0.068-0.091-0.068l0,0c-0.006,0-0.01,0-0.015,0.001c-0.135,0.032-0.282,0.164-0.49,0.407
					c-0.018,0.024-0.028,0.047-0.028,0.07c0,0.021,0.008,0.042,0.028,0.069c0.425,0.45,0.673,1.002,0.673,1.63
					c0,0.273-0.046,0.562-0.147,0.862C101.603,35.655,101.767,35.473,101.965,35.165z"/>
				<polygon fill="#57459B" points="101.968,35.166 101.968,35.166 101.968,35.166 				"/>
			</g>
			<path fill="#57459B" d="M102.047,35.01c0.14-0.304,0.211-0.63,0.211-0.957c0-0.522-0.183-1.048-0.562-1.501
				c-0.033-0.036-0.053-0.071-0.087-0.102c-0.074-0.038-0.108-0.049-0.168-0.073c-0.003,0-0.006,0-0.009,0
				c-0.044,0-0.07,0.025-0.096,0.079c-0.02,0.058-0.023,0.091-0.023,0.126c0,0.032,0.004,0.064,0.006,0.118
				c0.004,0.058,0.042,0.118,0.094,0.156c0.447,0.471,0.66,1.118,0.66,1.767C102.073,34.751,102.065,34.882,102.047,35.01z"/>
			<path fill="#57459B" d="M101.375,32.292c0.002,0,0.008,0,0.012,0c0.075,0.013,0.075,0.02,0.104,0.023
				c-0.076-0.067-0.299-0.219-0.414-0.276c-1.043,0.194-1.682,0.811-1.949,1.706c-0.002,0.012-0.004,0.023-0.004,0.031
				c0,0.031,0.018,0.044,0.028,0.087c0.068,0.148,0.126,0.224,0.199,0.319c0.033,0.028,0.051,0.042,0.083,0.042
				c0.014,0,0.03-0.003,0.052-0.008c0.172-0.056,0.27-0.102,0.416-0.206c0.051-0.047,0.065-0.048,0.073-0.114
				c0-0.137,0-0.296,0.038-0.451c0.018-0.093,0.077-0.116,0.138-0.137c0.096-0.026,0.186-0.03,0.277-0.03
				c0.051,0,0.101,0.001,0.152,0.001c0.062-0.003,0.112-0.03,0.141-0.111c0.121-0.144,0.244-0.258,0.442-0.395
				c0.046-0.011,0.059-0.042,0.059-0.084c0-0.01,0-0.02-0.002-0.032c0-0.014,0-0.027,0-0.04c0-0.018,0-0.035,0-0.052
				c0-0.058,0.003-0.114,0.031-0.183C101.254,32.35,101.306,32.292,101.375,32.292z"/>
		</g>
		<path fill="#57459B" d="M100,31.584 M100,36.457 M100,31.584 M100,31.233c-1.538,0-2.789,1.251-2.789,2.788
			c0,1.538,1.251,2.789,2.789,2.789s2.788-1.25,2.788-2.789C102.789,32.484,101.539,31.233,100,31.233L100,31.233z"/>
	</g>
	<path fill="#57459B" d="M100,28.683c-2.949,0-5.339,2.391-5.339,5.338c0,2.949,2.39,5.338,5.339,5.338
		c2.948,0,5.338-2.39,5.338-5.338C105.338,31.073,102.949,28.683,100,28.683z M100,37.624c-1.987,0-3.603-1.617-3.603-3.604
		c0-1.986,1.615-3.602,3.603-3.602c1.986,0,3.603,1.616,3.603,3.602C103.603,36.007,101.987,37.624,100,37.624z"/>
	<g>
		<g>
			<path fill-rule="evenodd" clip-rule="evenodd" fill="#F4F5F6" d="M114.791,31.456c-0.023-0.573-0.095-1.156-0.209-1.731
				c-0.227-1.129-0.618-2.222-1.168-3.247c-0.559-1.04-1.258-1.974-2.08-2.776c-0.869-0.85-1.852-1.525-2.918-2.008
				c-1.094-0.498-2.307-0.788-3.503-0.84c-0.14-0.007-0.285-0.009-0.427-0.009c-1.021,0-2.058,0.161-3.08,0.479
				c-0.463,0.144-0.935,0.324-1.405,0.537c-0.471-0.213-0.942-0.393-1.406-0.537c-1.021-0.317-2.058-0.479-3.079-0.479
				c-0.143,0-0.286,0.002-0.429,0.009c-1.195,0.052-2.407,0.342-3.502,0.84c-1.064,0.483-2.047,1.158-2.917,2.008
				c-0.823,0.803-1.523,1.737-2.081,2.776c-0.549,1.025-0.941,2.117-1.168,3.246c-0.113,0.577-0.185,1.159-0.209,1.733
				c-0.012,0.285-0.012,0.582,0,0.879c0.011,0.269,0.03,0.539,0.058,0.829c0.105,1.112,0.336,2.207,0.684,3.254
				c0.344,1.039,0.811,2.053,1.386,3.013c0.548,0.915,1.207,1.798,1.959,2.625c0.698,0.77,1.493,1.505,2.361,2.188
				c0.803,0.631,1.685,1.229,2.62,1.775c0.866,0.507,1.801,0.985,2.777,1.417c0.848,0.375,1.76,0.73,2.709,1.055L100,48.574
				l0.237-0.082c0.948-0.324,1.859-0.68,2.708-1.055c0.977-0.433,1.911-0.91,2.779-1.417c0.935-0.546,1.816-1.144,2.619-1.775
				c0.868-0.682,1.661-1.418,2.361-2.188c0.751-0.827,1.411-1.71,1.958-2.625c0.576-0.958,1.043-1.972,1.387-3.012
				c0.349-1.049,0.578-2.144,0.684-3.252c0.027-0.283,0.046-0.554,0.057-0.829C114.803,32.034,114.803,31.738,114.791,31.456z
				 M100,45.479c-0.585-0.216-1.161-0.446-1.729-0.697c-0.852-0.378-1.682-0.797-2.479-1.264c-0.798-0.466-1.562-0.979-2.28-1.544
				c-0.718-0.564-1.389-1.18-1.995-1.847c-0.606-0.667-1.147-1.386-1.604-2.149c-0.459-0.764-0.833-1.573-1.112-2.413
				c-0.278-0.839-0.46-1.71-0.545-2.595c-0.021-0.22-0.035-0.443-0.045-0.663c-0.008-0.211-0.008-0.423,0-0.635
				c0.018-0.424,0.069-0.849,0.153-1.268c0.168-0.839,0.464-1.658,0.869-2.416c0.407-0.757,0.924-1.453,1.53-2.045
				c0.607-0.593,1.305-1.08,2.062-1.423c0.755-0.343,1.567-0.538,2.395-0.575c0.828-0.037,1.669,0.084,2.485,0.338
				c0.793,0.245,1.562,0.614,2.295,1.065c0.732-0.452,1.501-0.821,2.295-1.065c0.816-0.254,1.657-0.375,2.484-0.338
				s1.64,0.232,2.396,0.575c0.757,0.343,1.454,0.83,2.062,1.423c0.606,0.593,1.123,1.289,1.53,2.045
				c0.405,0.757,0.701,1.576,0.869,2.416c0.084,0.419,0.136,0.844,0.153,1.268c0.008,0.211,0.008,0.424,0,0.635
				c-0.01,0.22-0.024,0.443-0.045,0.663c-0.085,0.884-0.267,1.755-0.546,2.595c-0.279,0.84-0.653,1.649-1.11,2.413
				c-0.458,0.763-0.999,1.482-1.605,2.149c-0.606,0.667-1.278,1.283-1.995,1.847c-0.718,0.565-1.482,1.078-2.28,1.544
				c-0.798,0.467-1.628,0.886-2.479,1.264C101.162,45.032,100.584,45.263,100,45.479z"/>
		</g>
	</g>
	<path fill="#171617" d="M115.855,31.41c-0.025-0.627-0.103-1.265-0.227-1.894c-0.248-1.233-0.676-2.425-1.274-3.542
		c-0.61-1.135-1.375-2.156-2.274-3.035c-0.96-0.937-2.045-1.683-3.224-2.217c-1.217-0.553-2.563-0.876-3.897-0.934
		c-0.158-0.007-0.317-0.01-0.473-0.01c-1.129,0-2.272,0.177-3.396,0.526c-0.356,0.111-0.723,0.243-1.089,0.394
		c-0.365-0.15-0.731-0.283-1.091-0.394c-1.124-0.349-2.267-0.526-3.395-0.526c-0.156,0-0.316,0.003-0.475,0.011
		c-1.332,0.057-2.679,0.38-3.896,0.935c-1.179,0.533-2.263,1.278-3.223,2.215c-0.899,0.879-1.666,1.9-2.273,3.035
		c-0.6,1.118-1.028,2.309-1.275,3.542c-0.124,0.629-0.201,1.268-0.228,1.897c-0.014,0.314-0.014,0.639-0.001,0.965
		c0.012,0.286,0.032,0.576,0.061,0.887c0.114,1.192,0.361,2.367,0.734,3.49c0.368,1.113,0.867,2.199,1.483,3.225
		c0.585,0.975,1.286,1.915,2.083,2.793c0.739,0.813,1.578,1.59,2.492,2.31c0.841,0.661,1.763,1.286,2.74,1.858
		c0.901,0.526,1.872,1.022,2.886,1.472c0.876,0.388,1.815,0.754,2.795,1.089L100,49.7l0.582-0.199
		c0.98-0.336,1.92-0.702,2.795-1.089c1.012-0.449,1.982-0.944,2.886-1.472c0.977-0.572,1.899-1.197,2.74-1.858
		c0.913-0.719,1.752-1.496,2.492-2.31c0.797-0.878,1.498-1.818,2.082-2.794c0.616-1.025,1.115-2.111,1.484-3.226
		c0.373-1.125,0.62-2.297,0.734-3.487c0.027-0.302,0.049-0.591,0.059-0.886C115.869,32.047,115.869,31.721,115.855,31.41z
		 M114.458,32.324c-0.011,0.27-0.029,0.535-0.056,0.811c-0.103,1.084-0.328,2.154-0.669,3.18c-0.338,1.017-0.793,2.009-1.354,2.946
		c-0.538,0.896-1.185,1.762-1.921,2.572c-0.688,0.757-1.467,1.48-2.32,2.151c-0.789,0.621-1.659,1.21-2.581,1.75
		c-0.857,0.502-1.781,0.973-2.747,1.4c-0.838,0.371-1.739,0.723-2.681,1.045L100,48.221l-0.129-0.043
		c-0.941-0.322-1.844-0.673-2.682-1.044c-0.966-0.429-1.89-0.899-2.745-1.401c-0.922-0.539-1.792-1.128-2.582-1.75
		c-0.854-0.672-1.635-1.396-2.321-2.151c-0.736-0.81-1.382-1.675-1.919-2.572c-0.562-0.938-1.02-1.93-1.356-2.946
		c-0.34-1.024-0.565-2.095-0.668-3.181c-0.026-0.283-0.045-0.549-0.056-0.811c-0.011-0.287-0.011-0.574,0.001-0.852
		c0.023-0.558,0.091-1.125,0.202-1.682c0.22-1.097,0.601-2.158,1.135-3.154c0.542-1.008,1.221-1.916,2.019-2.694
		c0.844-0.823,1.793-1.477,2.824-1.943c1.057-0.48,2.224-0.761,3.378-0.811c0.139-0.005,0.277-0.009,0.414-0.009
		c0.987,0,1.989,0.156,2.979,0.464c0.452,0.139,0.911,0.315,1.368,0.521L100,22.225l0.137-0.062
		c0.458-0.207,0.918-0.383,1.367-0.521c1.129-0.351,2.274-0.505,3.394-0.455c1.155,0.05,2.323,0.331,3.38,0.81
		c1.03,0.467,1.981,1.121,2.823,1.944c0.799,0.779,1.478,1.685,2.02,2.696c0.533,0.995,0.915,2.056,1.135,3.154
		c0.111,0.56,0.179,1.124,0.201,1.681C114.469,31.742,114.469,32.029,114.458,32.324z"/>
	<path fill="#F4F5F6" d="M82.865,33.759c-0.015-0.143-0.021-0.271-0.029-0.406H50.931v1.336h32.062
		C82.941,34.381,82.897,34.071,82.865,33.759z"/>
	<path fill="#F4F5F6" d="M117.166,33.353c-0.011,0.136-0.016,0.269-0.029,0.409c-0.033,0.311-0.076,0.62-0.128,0.927h20.716v-1.336
		H117.166z"/>
	<g>
		<path fill="#40FFAD" d="M3.985,57.654h7.786v2.331H6.51v2.137h4.97v2.331H6.51v2.332h5.553v2.331H3.985V57.654z"/>
		<path fill="#40FFAD" d="M16.611,57.654h2.525v9.13h4.679v2.331h-7.204V57.654z"/>
		<path fill="#40FFAD" d="M27.732,57.654h2.525v4.76l4.451-4.76h3.302l-5.098,5.326l5.535,6.135h-3.528l-4.662-5.439v5.439h-2.525
			V57.654z"/>
		<path fill="#40FFAD" d="M41.75,57.654h2.525v4.274h4.904v-4.274h2.525v11.461H49.18v-4.954h-4.904v4.954H41.75V57.654z"/>
		<path fill="#40FFAD" d="M60.237,57.654h2.088l4.986,11.461H64.46l-0.987-2.428h-4.451l-0.955,2.428h-2.784L60.237,57.654z
			 M61.207,60.988l-1.392,3.562h2.801L61.207,60.988z"/>
		<path fill="#40FFAD" d="M70.887,57.654h4.437c2.348,0,4.321,0.81,4.321,3.48c0,1.602-0.857,2.85-2.477,3.141l2.913,4.84h-3.027
			l-2.395-4.581h-1.246v4.581h-2.526V57.654z M73.414,62.396h1.488c0.923,0,2.12-0.032,2.12-1.278c0-1.149-1.036-1.328-1.958-1.328
			h-1.65V62.396z"/>
		<path fill="#40FFAD" d="M85.731,59.888h-3.269v-2.234h9.064v2.234h-3.27v9.227h-2.526V59.888z"/>
		<path fill="#40FFAD" d="M102.454,57.654h4.435c2.348,0,4.322,0.81,4.322,3.48c0,1.602-0.858,2.85-2.476,3.141l2.912,4.84h-3.026
			l-2.396-4.581h-1.247v4.581h-2.524V57.654z M104.978,62.396h1.49c0.921,0,2.12-0.032,2.12-1.278c0-1.149-1.036-1.328-1.959-1.328
			h-1.651V62.396z"/>
		<path fill="#40FFAD" d="M115.468,57.654h7.786v2.331h-5.261v2.137h4.97v2.331h-4.97v2.332h5.553v2.331h-8.078V57.654z"/>
		<path fill="#40FFAD" d="M127.997,57.654h4.258c2.38,0,4.354,0.761,4.354,3.48c0,2.687-1.829,3.513-4.241,3.513h-1.846v4.467
			h-2.525V57.654z M130.522,62.511h1.684c0.891,0,1.781-0.308,1.781-1.376c0-1.182-1.198-1.344-2.17-1.344h-1.295V62.511z"/>
		<path fill="#40FFAD" d="M150.288,64.695c0,2.704-1.651,4.711-4.824,4.711c-3.189,0-4.841-2.007-4.841-4.711v-7.042h2.525v6.944
			c0,1.409,0.973,2.478,2.315,2.478c1.328,0,2.298-1.069,2.298-2.478v-6.944h2.526V64.695z"/>
		<path fill="#40FFAD" d="M155.046,57.654h4.273c2.008,0,4.192,0.421,4.192,2.914c0,1.279-0.793,2.152-1.974,2.525v0.032
			c1.505,0.195,2.508,1.312,2.508,2.8c0,2.396-2.267,3.189-4.306,3.189h-4.694V57.654z M157.572,62.235h1.829
			c0.777,0,1.587-0.325,1.587-1.247c0-0.955-0.907-1.198-1.7-1.198h-1.716V62.235z M157.572,66.978h2.266
			c0.793,0,1.684-0.34,1.684-1.344c0-1.084-1.214-1.262-2.039-1.262h-1.91V66.978z"/>
		<path fill="#40FFAD" d="M168.061,57.654h2.524v9.13h4.679v2.331h-7.203V57.654z"/>
		<path fill="#40FFAD" d="M179.052,57.654h2.525v11.461h-2.525V57.654z"/>
		<path fill="#40FFAD" d="M193.799,60.632c-0.502-0.599-1.23-0.938-2.169-0.938c-1.91,0-3.318,1.554-3.318,3.69
			c0,2.137,1.408,3.691,3.237,3.691c1.02,0,1.845-0.454,2.362-1.231l2.104,1.57c-0.955,1.36-2.573,1.992-4.143,1.992
			c-3.578,0-6.185-2.348-6.185-6.022c0-3.674,2.606-6.021,6.185-6.021c1.278,0,2.896,0.437,3.868,1.684L193.799,60.632z"/>
	</g>
</g>
</svg>
