<?xml version="1.0" encoding="utf-8"?>
<!-- Generator: Adobe Illustrator 15.0.0, SVG Export Plug-In . SVG Version: 6.00 Build 0)  -->
<!DOCTYPE svg PUBLIC "-//W3C//DTD SVG 1.1//EN" "http://www.w3.org/Graphics/SVG/1.1/DTD/svg11.dtd">
<svg version="1.1" id="Layer_1" xmlns="http://www.w3.org/2000/svg" xmlns:xlink="http://www.w3.org/1999/xlink" x="0px" y="0px"
	 width="80px" height="80px" viewBox="0 0 80 80" enable-background="new 0 0 80 80" xml:space="preserve">
<path fill="#0A0A0A" d="M-171.333,6.632c-19.518,0-35.334,15.821-35.334,35.334c0,19.518,15.816,35.334,35.334,35.334
	C-151.821,77.3-136,61.483-136,41.966C-136,22.453-151.821,6.632-171.333,6.632z M-163.767,41.982h-4.95c0,7.908,0,17.65,0,17.65
	h-7.338c0,0,0-9.645,0-17.65h-3.49V35.74h3.49v-4.032c0-2.894,1.373-7.409,7.403-7.409l5.438,0.022v6.057c0,0-3.306,0-3.946,0
	c-0.646,0-1.558,0.32-1.558,1.698v3.664h5.596L-163.767,41.982z"/>
<path fill="#0A0A0A" d="M-113,44.666c-19.513,0-35.334,15.82-35.334,35.334c0,19.518,15.821,35.334,35.334,35.334
	c19.512,0,35.334-15.816,35.334-35.334C-77.666,60.486-93.488,44.666-113,44.666z M-98.948,72.797
	c0.017,0.311,0.022,0.619,0.022,0.934c0,9.58-7.295,20.631-20.625,20.631c-4.098,0-7.908-1.199-11.116-3.256
	c0.57,0.064,1.145,0.098,1.731,0.098c3.397,0,6.519-1.156,8.999-3.1c-3.17-0.064-5.846-2.16-6.769-5.037
	c0.44,0.08,0.896,0.129,1.362,0.129c0.663,0,1.303-0.09,1.911-0.254c-3.316-0.668-5.813-3.598-5.813-7.111c0-0.025,0-0.059,0-0.086
	c0.977,0.543,2.095,0.869,3.284,0.906c-1.948-1.303-3.224-3.521-3.224-6.035c0-1.33,0.358-2.578,0.977-3.646
	c3.577,4.391,8.918,7.271,14.942,7.576c-0.12-0.531-0.185-1.086-0.185-1.656c0-4,3.246-7.244,7.251-7.244
	c2.078,0,3.967,0.885,5.286,2.289c1.649-0.326,3.202-0.928,4.608-1.764c-0.549,1.699-1.693,3.115-3.191,4.012
	c1.465-0.17,2.865-0.564,4.162-1.135C-96.305,70.496-97.531,71.777-98.948,72.797z"/>
<g>
	<path fill="#0A0A0A" d="M39.685,34.615c0.276,0,0.488-0.069,0.651-0.222s0.244-0.364,0.244-0.624v-5.368
		c0-0.212-0.081-0.385-0.25-0.521c-0.162-0.135-0.374-0.195-0.646-0.195c-0.244,0-0.445,0.061-0.597,0.195
		c-0.152,0.137-0.229,0.31-0.229,0.521v5.368c0,0.271,0.071,0.478,0.212,0.624C39.218,34.551,39.419,34.615,39.685,34.615z"/>
	<path fill="#0A0A0A" d="M44.131,44.532c-0.277,0-0.555,0.065-0.826,0.206c-0.271,0.146-0.525,0.358-0.766,0.624v-3.901h-1.806
		v12.125h1.806v-0.689c0.229,0.276,0.49,0.477,0.766,0.602c0.271,0.137,0.582,0.196,0.934,0.196c0.527,0,0.934-0.163,1.211-0.505
		c0.281-0.342,0.424-0.825,0.424-1.454v-4.961c0-0.733-0.146-1.292-0.445-1.678C45.129,44.723,44.693,44.532,44.131,44.532z
		 M44.031,51.485c0,0.292-0.053,0.493-0.156,0.618c-0.104,0.13-0.26,0.195-0.482,0.195c-0.152,0-0.295-0.038-0.43-0.103
		c-0.141-0.06-0.281-0.169-0.424-0.315v-5.568c0.121-0.125,0.24-0.217,0.365-0.277c0.129-0.054,0.254-0.086,0.379-0.086
		c0.244,0,0.43,0.075,0.559,0.232c0.125,0.158,0.189,0.386,0.189,0.689V51.485z"/>
	<polygon fill="#0A0A0A" points="27.316,43.224 29.4,43.224 29.4,53.586 31.414,53.586 31.414,43.224 33.498,43.224 33.498,41.461 
		27.316,41.461 	"/>
	<path fill="#0A0A0A" d="M37.6,51.431c-0.167,0.195-0.353,0.354-0.554,0.483c-0.2,0.125-0.368,0.185-0.498,0.185
		c-0.169,0-0.294-0.044-0.37-0.142c-0.07-0.097-0.107-0.244-0.107-0.456v-6.866h-1.786v7.48c0,0.537,0.103,0.927,0.309,1.199
		c0.213,0.271,0.521,0.396,0.939,0.396c0.331,0,0.679-0.088,1.036-0.282c0.359-0.19,0.701-0.468,1.031-0.831v0.988h1.786v-8.951
		H37.6V51.431z"/>
	<path fill="#0A0A0A" d="M40,4.666C20.488,4.666,4.667,20.487,4.667,40c0,19.518,15.821,35.334,35.333,35.334
		c19.512,0,35.334-15.816,35.334-35.334C75.334,20.487,59.512,4.666,40,4.666z M44.26,26.226h2.01v7.549
		c0,0.233,0.049,0.402,0.129,0.505c0.082,0.108,0.223,0.162,0.412,0.162c0.148,0,0.338-0.069,0.561-0.206
		c0.227-0.146,0.434-0.314,0.619-0.531v-7.479h2.018v9.851H47.99v-1.091c-0.371,0.401-0.756,0.711-1.156,0.917
		c-0.402,0.206-0.787,0.32-1.168,0.32c-0.467,0-0.814-0.152-1.053-0.45c-0.234-0.288-0.354-0.728-0.354-1.314V26.226z
		 M36.787,28.478c0-0.766,0.271-1.373,0.813-1.823c0.537-0.451,1.271-0.674,2.188-0.674c0.829,0,1.508,0.233,2.045,0.711
		c0.527,0.473,0.793,1.097,0.793,1.84v5.092c0,0.847-0.256,1.497-0.777,1.98c-0.525,0.483-1.242,0.723-2.159,0.723
		c-0.88,0-1.586-0.25-2.112-0.744c-0.526-0.499-0.792-1.161-0.792-1.997V28.478z M31.304,22.724l1.472,5.336h0.141l1.406-5.336
		h2.302l-2.639,7.816v5.536h-2.263v-5.292l-2.698-8.061H31.304z M57.666,50.828c0,3.561-2.893,6.454-6.453,6.454H28.787
		c-3.566,0-6.454-2.894-6.454-6.454V45.64c0-3.566,2.888-6.459,6.454-6.459h22.426c3.561,0,6.453,2.893,6.453,6.459V50.828z"/>
	<path fill="#0A0A0A" d="M49.525,44.419c-0.799,0-1.449,0.238-1.955,0.727c-0.51,0.489-0.76,1.129-0.76,1.899v4.017
		c0,0.863,0.234,1.536,0.689,2.024c0.457,0.5,1.092,0.738,1.889,0.738c0.891,0,1.564-0.229,2.008-0.689
		c0.451-0.467,0.674-1.156,0.674-2.073v-0.461h-1.84v0.407c0,0.526-0.059,0.868-0.174,1.02c-0.119,0.157-0.326,0.233-0.623,0.233
		c-0.289,0-0.49-0.087-0.607-0.271c-0.115-0.186-0.174-0.511-0.174-0.982v-1.684h3.418v-2.279c0-0.852-0.217-1.498-0.656-1.948
		C50.975,44.641,50.346,44.419,49.525,44.419z M50.23,47.936h-1.578v-0.906c0-0.375,0.059-0.646,0.184-0.799
		c0.125-0.167,0.33-0.249,0.613-0.249c0.271,0,0.473,0.082,0.598,0.249c0.119,0.152,0.184,0.424,0.184,0.799V47.936z"/>
</g>
</svg>
